G04 #@! TF.FileFunction,Soldermask,Bot*
%FSLAX46Y46*%
G04 Gerber Fmt 4.6, Leading zero omitted, Abs format (unit mm)*
G04 Created by KiCad (PCBNEW 4.0.7-e2-6376~58~ubuntu16.04.1) date Tue Jul  9 21:41:40 2024*
%MOMM*%
%LPD*%
G01*
G04 APERTURE LIST*
%ADD10C,0.100000*%
%ADD11R,1.900000X1.650000*%
%ADD12R,2.100000X2.100000*%
%ADD13O,2.100000X2.100000*%
%ADD14C,1.400000*%
%ADD15R,2.000000X2.000000*%
%ADD16O,2.000000X2.000000*%
%ADD17R,1.700000X1.900000*%
G04 APERTURE END LIST*
D10*
D11*
X156550000Y-97500000D03*
X159050000Y-97500000D03*
D12*
X154760000Y-115770000D03*
D13*
X157300000Y-115770000D03*
X154760000Y-118310000D03*
X157300000Y-118310000D03*
X154760000Y-120850000D03*
X157300000Y-120850000D03*
X154760000Y-123390000D03*
X157300000Y-123390000D03*
D14*
X156450000Y-79850000D03*
D15*
X152380000Y-64680000D03*
D16*
X160000000Y-85000000D03*
X152380000Y-67220000D03*
X160000000Y-82460000D03*
X152380000Y-69760000D03*
X160000000Y-79920000D03*
X152380000Y-72300000D03*
X160000000Y-77380000D03*
X152380000Y-74840000D03*
X160000000Y-74840000D03*
X152380000Y-77380000D03*
X160000000Y-72300000D03*
X152380000Y-79920000D03*
X160000000Y-69760000D03*
X152380000Y-82460000D03*
X160000000Y-67220000D03*
X152380000Y-85000000D03*
X160000000Y-64680000D03*
D15*
X152400000Y-105020000D03*
D16*
X160020000Y-125340000D03*
X152400000Y-107560000D03*
X160020000Y-122800000D03*
X152400000Y-110100000D03*
X160020000Y-120260000D03*
X152400000Y-112640000D03*
X160020000Y-117720000D03*
X152400000Y-115180000D03*
X160020000Y-115180000D03*
X152400000Y-117720000D03*
X160020000Y-112640000D03*
X152400000Y-120260000D03*
X160020000Y-110100000D03*
X152400000Y-122800000D03*
X160020000Y-107560000D03*
X152400000Y-125340000D03*
X160020000Y-105020000D03*
D17*
X156450000Y-82450000D03*
X156450000Y-85150000D03*
M02*
