M48
;DRILL file {KiCad 4.0.7-e2-6376~58~ubuntu16.04.1} date Tue Jul  9 21:44:03 2024
;FORMAT={-:-/ absolute / metric / decimal}
FMAT,2
METRIC,TZ
T1C0.400
T2C0.800
T3C1.000
%
G90
G05
M71
T1
X150.35Y-89.257
X151.6Y-94.2
X151.95Y-99.
X153.15Y-97.45
X153.2Y-95.05
X153.789Y-94.001
X153.8Y-96.65
X155.15Y-91.25
X155.4Y-102.6
X156.55Y-97.5
X157.1Y-102.5
X157.9Y-91.05
X158.27Y-95.675
X159.35Y-91.2
X160.95Y-97.45
T2
X152.38Y-64.68
X152.38Y-67.22
X152.38Y-69.76
X152.38Y-72.3
X152.38Y-74.84
X152.38Y-77.38
X152.38Y-79.92
X152.38Y-82.46
X152.38Y-85.
X152.4Y-105.02
X152.4Y-107.56
X152.4Y-110.1
X152.4Y-112.64
X152.4Y-115.18
X152.4Y-117.72
X152.4Y-120.26
X152.4Y-122.8
X152.4Y-125.34
X160.Y-64.68
X160.Y-67.22
X160.Y-69.76
X160.Y-72.3
X160.Y-74.84
X160.Y-77.38
X160.Y-79.92
X160.Y-82.46
X160.Y-85.
X160.02Y-105.02
X160.02Y-107.56
X160.02Y-110.1
X160.02Y-112.64
X160.02Y-115.18
X160.02Y-117.72
X160.02Y-120.26
X160.02Y-122.8
X160.02Y-125.34
T3
X154.76Y-115.77
X154.76Y-118.31
X154.76Y-120.85
X154.76Y-123.39
X157.3Y-115.77
X157.3Y-118.31
X157.3Y-120.85
X157.3Y-123.39
T0
M30
