G04 #@! TF.FileFunction,Soldermask,Top*
%FSLAX46Y46*%
G04 Gerber Fmt 4.6, Leading zero omitted, Abs format (unit mm)*
G04 Created by KiCad (PCBNEW 4.0.7-e2-6376~58~ubuntu16.04.1) date Tue Jul  9 21:41:40 2024*
%MOMM*%
%LPD*%
G01*
G04 APERTURE LIST*
%ADD10C,0.100000*%
%ADD11R,2.100000X2.100000*%
%ADD12O,2.100000X2.100000*%
%ADD13R,2.000000X2.000000*%
%ADD14O,2.000000X2.000000*%
%ADD15R,0.950000X1.900000*%
%ADD16R,1.900000X0.950000*%
G04 APERTURE END LIST*
D10*
D11*
X154760000Y-115770000D03*
D12*
X157300000Y-115770000D03*
X154760000Y-118310000D03*
X157300000Y-118310000D03*
X154760000Y-120850000D03*
X157300000Y-120850000D03*
X154760000Y-123390000D03*
X157300000Y-123390000D03*
D13*
X152380000Y-64680000D03*
D14*
X160000000Y-85000000D03*
X152380000Y-67220000D03*
X160000000Y-82460000D03*
X152380000Y-69760000D03*
X160000000Y-79920000D03*
X152380000Y-72300000D03*
X160000000Y-77380000D03*
X152380000Y-74840000D03*
X160000000Y-74840000D03*
X152380000Y-77380000D03*
X160000000Y-72300000D03*
X152380000Y-79920000D03*
X160000000Y-69760000D03*
X152380000Y-82460000D03*
X160000000Y-67220000D03*
X152380000Y-85000000D03*
X160000000Y-64680000D03*
D13*
X152400000Y-105020000D03*
D14*
X160020000Y-125340000D03*
X152400000Y-107560000D03*
X160020000Y-122800000D03*
X152400000Y-110100000D03*
X160020000Y-120260000D03*
X152400000Y-112640000D03*
X160020000Y-117720000D03*
X152400000Y-115180000D03*
X160020000Y-115180000D03*
X152400000Y-117720000D03*
X160020000Y-112640000D03*
X152400000Y-120260000D03*
X160020000Y-110100000D03*
X152400000Y-122800000D03*
X160020000Y-107560000D03*
X152400000Y-125340000D03*
X160020000Y-105020000D03*
D15*
X160300000Y-89350000D03*
X159500000Y-89350000D03*
X158700000Y-89350000D03*
X157900000Y-89350000D03*
X157100000Y-89350000D03*
X156300000Y-89350000D03*
X155500000Y-89350000D03*
X154700000Y-89350000D03*
X153900000Y-89350000D03*
X153100000Y-89350000D03*
X152300000Y-89350000D03*
D16*
X150600000Y-91050000D03*
X150600000Y-91850000D03*
X150600000Y-92650000D03*
X150600000Y-93450000D03*
X150600000Y-94250000D03*
X150600000Y-95050000D03*
X150600000Y-95850000D03*
X150600000Y-96650000D03*
X150600000Y-97450000D03*
X150600000Y-98250000D03*
X150600000Y-99050000D03*
D15*
X152300000Y-100750000D03*
X153100000Y-100750000D03*
X153900000Y-100750000D03*
X154700000Y-100750000D03*
X155500000Y-100750000D03*
X156300000Y-100750000D03*
X157100000Y-100750000D03*
X157900000Y-100750000D03*
X158700000Y-100750000D03*
X159500000Y-100750000D03*
X160300000Y-100750000D03*
D16*
X162000000Y-99050000D03*
X162000000Y-98250000D03*
X162000000Y-97450000D03*
X162000000Y-96650000D03*
X162000000Y-95850000D03*
X162000000Y-95050000D03*
X162000000Y-94250000D03*
X162000000Y-93450000D03*
X162000000Y-92650000D03*
X162000000Y-91850000D03*
X162000000Y-91050000D03*
M02*
