G04 #@! TF.FileFunction,Copper,L1,Top,Signal*
%FSLAX46Y46*%
G04 Gerber Fmt 4.6, Leading zero omitted, Abs format (unit mm)*
G04 Created by KiCad (PCBNEW 4.0.7-e2-6376~58~ubuntu16.04.1) date Tue Jul  9 21:41:40 2024*
%MOMM*%
%LPD*%
G01*
G04 APERTURE LIST*
%ADD10C,0.100000*%
%ADD11R,1.700000X1.700000*%
%ADD12O,1.700000X1.700000*%
%ADD13R,1.600000X1.600000*%
%ADD14O,1.600000X1.600000*%
%ADD15R,0.550000X1.500000*%
%ADD16R,1.500000X0.550000*%
%ADD17C,0.600000*%
%ADD18C,0.400000*%
%ADD19C,0.250000*%
G04 APERTURE END LIST*
D10*
D11*
X154760000Y-115770000D03*
D12*
X157300000Y-115770000D03*
X154760000Y-118310000D03*
X157300000Y-118310000D03*
X154760000Y-120850000D03*
X157300000Y-120850000D03*
X154760000Y-123390000D03*
X157300000Y-123390000D03*
D13*
X152380000Y-64680000D03*
D14*
X160000000Y-85000000D03*
X152380000Y-67220000D03*
X160000000Y-82460000D03*
X152380000Y-69760000D03*
X160000000Y-79920000D03*
X152380000Y-72300000D03*
X160000000Y-77380000D03*
X152380000Y-74840000D03*
X160000000Y-74840000D03*
X152380000Y-77380000D03*
X160000000Y-72300000D03*
X152380000Y-79920000D03*
X160000000Y-69760000D03*
X152380000Y-82460000D03*
X160000000Y-67220000D03*
X152380000Y-85000000D03*
X160000000Y-64680000D03*
D13*
X152400000Y-105020000D03*
D14*
X160020000Y-125340000D03*
X152400000Y-107560000D03*
X160020000Y-122800000D03*
X152400000Y-110100000D03*
X160020000Y-120260000D03*
X152400000Y-112640000D03*
X160020000Y-117720000D03*
X152400000Y-115180000D03*
X160020000Y-115180000D03*
X152400000Y-117720000D03*
X160020000Y-112640000D03*
X152400000Y-120260000D03*
X160020000Y-110100000D03*
X152400000Y-122800000D03*
X160020000Y-107560000D03*
X152400000Y-125340000D03*
X160020000Y-105020000D03*
D15*
X160300000Y-89350000D03*
X159500000Y-89350000D03*
X158700000Y-89350000D03*
X157900000Y-89350000D03*
X157100000Y-89350000D03*
X156300000Y-89350000D03*
X155500000Y-89350000D03*
X154700000Y-89350000D03*
X153900000Y-89350000D03*
X153100000Y-89350000D03*
X152300000Y-89350000D03*
D16*
X150600000Y-91050000D03*
X150600000Y-91850000D03*
X150600000Y-92650000D03*
X150600000Y-93450000D03*
X150600000Y-94250000D03*
X150600000Y-95050000D03*
X150600000Y-95850000D03*
X150600000Y-96650000D03*
X150600000Y-97450000D03*
X150600000Y-98250000D03*
X150600000Y-99050000D03*
D15*
X152300000Y-100750000D03*
X153100000Y-100750000D03*
X153900000Y-100750000D03*
X154700000Y-100750000D03*
X155500000Y-100750000D03*
X156300000Y-100750000D03*
X157100000Y-100750000D03*
X157900000Y-100750000D03*
X158700000Y-100750000D03*
X159500000Y-100750000D03*
X160300000Y-100750000D03*
D16*
X162000000Y-99050000D03*
X162000000Y-98250000D03*
X162000000Y-97450000D03*
X162000000Y-96650000D03*
X162000000Y-95850000D03*
X162000000Y-95050000D03*
X162000000Y-94250000D03*
X162000000Y-93450000D03*
X162000000Y-92650000D03*
X162000000Y-91850000D03*
X162000000Y-91050000D03*
D17*
X157100000Y-102500000D03*
X156550000Y-97500000D03*
X157900000Y-91050000D03*
X160950000Y-97450000D03*
X151950000Y-99000000D03*
X151600000Y-94200000D03*
X159350000Y-91200000D03*
X155150000Y-91250000D03*
X155400000Y-102600000D03*
X150350010Y-89256581D03*
X153789329Y-94000635D03*
X153200000Y-95050000D03*
X153150000Y-97450000D03*
X153800000Y-96650000D03*
X158270368Y-95675010D03*
D18*
X157100000Y-100750000D02*
X157100000Y-102500000D01*
X152600000Y-95900000D02*
X154825000Y-95900000D01*
X154825000Y-95900000D02*
X156425000Y-97500000D01*
X156425000Y-97500000D02*
X156550000Y-97500000D01*
X151750000Y-95050000D02*
X152600000Y-95900000D01*
X157100000Y-100750000D02*
X157100000Y-98050000D01*
X157100000Y-98050000D02*
X156550000Y-97500000D01*
X153900000Y-92900000D02*
X154450000Y-93450000D01*
X154450000Y-93450000D02*
X162000000Y-93450000D01*
X153900000Y-90500000D02*
X153900000Y-89350000D01*
X153900000Y-92900000D02*
X153900000Y-90500000D01*
X150600000Y-95050000D02*
X151750000Y-95050000D01*
X151750000Y-95050000D02*
X153900000Y-92900000D01*
X157900000Y-89350000D02*
X157900000Y-91050000D01*
X162000000Y-97450000D02*
X160950000Y-97450000D01*
X151950000Y-99000000D02*
X152500000Y-99000000D01*
X152500000Y-99000000D02*
X153100000Y-99600000D01*
X153100000Y-99600000D02*
X153100000Y-100750000D01*
X150600000Y-94250000D02*
X151550000Y-94250000D01*
X151550000Y-94250000D02*
X151600000Y-94200000D01*
X160000000Y-77380000D02*
X160000000Y-79920000D01*
X160020000Y-117720000D02*
X160020000Y-120260000D01*
D19*
X159350000Y-91200000D02*
X160300000Y-90250000D01*
X160300000Y-90250000D02*
X160300000Y-89350000D01*
X155400000Y-102600000D02*
X156800000Y-104000000D01*
X156800000Y-104000000D02*
X156800000Y-113350000D01*
X156800000Y-113350000D02*
X158650000Y-115200000D01*
X158650000Y-115200000D02*
X158650000Y-119500000D01*
X158650000Y-119500000D02*
X157300000Y-120850000D01*
X155150000Y-91250000D02*
X155500000Y-90900000D01*
X155500000Y-90900000D02*
X155500000Y-89350000D01*
X154700000Y-101750000D02*
X154700000Y-100750000D01*
X154700000Y-102825004D02*
X154700000Y-101750000D01*
X156124999Y-104250003D02*
X154700000Y-102825004D01*
X156124999Y-122025001D02*
X156124999Y-104250003D01*
X154760000Y-123390000D02*
X156124999Y-122025001D01*
X159500000Y-101750000D02*
X159500000Y-100750000D01*
X159500000Y-102750000D02*
X159500000Y-101750000D01*
X159140000Y-121550000D02*
X160633589Y-121550000D01*
X158650000Y-107855002D02*
X158650000Y-103600000D01*
X159644998Y-108850000D02*
X158650000Y-107855002D01*
X160850000Y-108850000D02*
X159644998Y-108850000D01*
X161350000Y-109350000D02*
X160850000Y-108850000D01*
X161350000Y-120833589D02*
X161350000Y-109350000D01*
X158650000Y-103600000D02*
X159500000Y-102750000D01*
X160633589Y-121550000D02*
X161350000Y-120833589D01*
X158000000Y-122690000D02*
X159140000Y-121550000D01*
X158000000Y-122690000D02*
X158149999Y-122540001D01*
X157300000Y-123390000D02*
X158000000Y-122690000D01*
X149568283Y-88474854D02*
X150050011Y-88956582D01*
X151330000Y-64680000D02*
X149568283Y-66441717D01*
X152380000Y-64680000D02*
X151330000Y-64680000D01*
X149568283Y-66441717D02*
X149568283Y-88474854D01*
X150050011Y-88956582D02*
X150350010Y-89256581D01*
X154038694Y-94250000D02*
X153789329Y-94000635D01*
X162000000Y-94250000D02*
X154038694Y-94250000D01*
X160400000Y-91700000D02*
X160550000Y-91850000D01*
X160550000Y-91850000D02*
X162000000Y-91850000D01*
X160400000Y-90850000D02*
X160400000Y-91700000D01*
X160800000Y-90450000D02*
X160400000Y-90850000D01*
X160810002Y-90450000D02*
X160800000Y-90450000D01*
X161150000Y-87281370D02*
X161150000Y-90110002D01*
X161150000Y-90110002D02*
X160810002Y-90450000D01*
X160000000Y-85000000D02*
X160000000Y-86131370D01*
X160000000Y-86131370D02*
X161150000Y-87281370D01*
X154700000Y-89350000D02*
X154700000Y-69550000D01*
X152380000Y-67220000D02*
X153179999Y-68019999D01*
X153179999Y-68019999D02*
X153179999Y-68029999D01*
X153179999Y-68029999D02*
X154700000Y-69550000D01*
X162000000Y-91050000D02*
X162000000Y-84460000D01*
X162000000Y-84460000D02*
X160000000Y-82460000D01*
X153550000Y-85495002D02*
X153550000Y-70930000D01*
X153550000Y-70930000D02*
X152380000Y-69760000D01*
X153100000Y-89350000D02*
X153100000Y-85945002D01*
X153100000Y-85945002D02*
X153550000Y-85495002D01*
X151580001Y-73099999D02*
X152380000Y-72300000D01*
X151600000Y-89525000D02*
X151600000Y-88286411D01*
X150549989Y-74130011D02*
X151580001Y-73099999D01*
X150600000Y-90525000D02*
X151600000Y-89525000D01*
X151600000Y-88286411D02*
X150549989Y-87236400D01*
X150549989Y-87236400D02*
X150549989Y-74130011D01*
X150600000Y-91050000D02*
X150600000Y-90525000D01*
X151000000Y-87050000D02*
X151000000Y-76220000D01*
X151000000Y-76220000D02*
X152380000Y-74840000D01*
X152300000Y-89350000D02*
X152300000Y-88350000D01*
X152300000Y-88350000D02*
X151000000Y-87050000D01*
X158800000Y-87200000D02*
X159500000Y-87900000D01*
X159500000Y-87900000D02*
X159500000Y-89350000D01*
X158800000Y-76040000D02*
X158800000Y-87200000D01*
X160000000Y-74840000D02*
X158800000Y-76040000D01*
X158300000Y-87950000D02*
X158300000Y-74000000D01*
X158300000Y-74000000D02*
X160000000Y-72300000D01*
X158700000Y-89350000D02*
X158700000Y-88350000D01*
X158700000Y-88350000D02*
X158300000Y-87950000D01*
X160000000Y-69760000D02*
X158868630Y-69760000D01*
X158868630Y-69760000D02*
X157700000Y-70928630D01*
X157700000Y-70928630D02*
X157700000Y-87750000D01*
X157700000Y-87750000D02*
X157100000Y-88350000D01*
X157100000Y-88350000D02*
X157100000Y-89350000D01*
X153200000Y-95050000D02*
X162000000Y-95050000D01*
X156300000Y-71150000D02*
X156300000Y-89350000D01*
X160000000Y-67220000D02*
X156300000Y-70920000D01*
X156300000Y-70920000D02*
X156300000Y-71150000D01*
X162950000Y-99650000D02*
X162950000Y-122410000D01*
X162950000Y-122410000D02*
X160020000Y-125340000D01*
X162350000Y-99050000D02*
X162950000Y-99650000D01*
X162000000Y-99050000D02*
X162350000Y-99050000D01*
X150600000Y-105950000D02*
X150600000Y-99050000D01*
X152400000Y-107560000D02*
X151268630Y-107560000D01*
X151268630Y-107560000D02*
X150600000Y-106891370D01*
X150600000Y-106891370D02*
X150600000Y-105950000D01*
X162250000Y-120570000D02*
X160819999Y-122000001D01*
X162250000Y-101050000D02*
X162250000Y-120570000D01*
X160324998Y-99124998D02*
X162250000Y-101050000D01*
X160324998Y-97149998D02*
X160324998Y-99124998D01*
X160824996Y-96650000D02*
X160324998Y-97149998D01*
X160819999Y-122000001D02*
X160020000Y-122800000D01*
X162000000Y-96650000D02*
X160824996Y-96650000D01*
X149350000Y-98500000D02*
X149350000Y-107050000D01*
X149350000Y-107050000D02*
X152400000Y-110100000D01*
X150600000Y-98250000D02*
X149600000Y-98250000D01*
X149600000Y-98250000D02*
X149350000Y-98500000D01*
X150600000Y-97450000D02*
X153150000Y-97450000D01*
X150600000Y-96650000D02*
X153800000Y-96650000D01*
X157250011Y-112410011D02*
X159220001Y-114380001D01*
X157250011Y-103813600D02*
X157250011Y-112410011D01*
X156300000Y-102863589D02*
X157250011Y-103813600D01*
X156300000Y-100750000D02*
X156300000Y-102863589D01*
X159220001Y-114380001D02*
X160020000Y-115180000D01*
X157749978Y-101900022D02*
X157749978Y-110369978D01*
X159220001Y-111840001D02*
X160020000Y-112640000D01*
X157900000Y-101750000D02*
X157749978Y-101900022D01*
X157900000Y-100750000D02*
X157900000Y-101750000D01*
X157749978Y-110369978D02*
X159220001Y-111840001D01*
X158199989Y-108279989D02*
X159220001Y-109300001D01*
X158199989Y-103413600D02*
X158199989Y-108279989D01*
X159220001Y-109300001D02*
X160020000Y-110100000D01*
X158700000Y-100750000D02*
X158700000Y-102913590D01*
X158700000Y-102913590D02*
X158199989Y-103413600D01*
X153550000Y-103000000D02*
X153550000Y-121650000D01*
X153550000Y-121650000D02*
X152400000Y-122800000D01*
X152300000Y-100750000D02*
X152300000Y-101750000D01*
X152300000Y-101750000D02*
X153550000Y-103000000D01*
X161750000Y-101675000D02*
X161750000Y-105830000D01*
X161750000Y-105830000D02*
X160020000Y-107560000D01*
X160300000Y-100750000D02*
X160825000Y-100750000D01*
X160825000Y-100750000D02*
X161750000Y-101675000D01*
X158445358Y-95850000D02*
X158270368Y-95675010D01*
X162000000Y-95850000D02*
X158445358Y-95850000D01*
M02*
