G04 #@! TF.FileFunction,Copper,L2,Bot,Signal*
%FSLAX46Y46*%
G04 Gerber Fmt 4.6, Leading zero omitted, Abs format (unit mm)*
G04 Created by KiCad (PCBNEW 4.0.7-e2-6376~58~ubuntu16.04.1) date Tue Jul  9 21:41:40 2024*
%MOMM*%
%LPD*%
G01*
G04 APERTURE LIST*
%ADD10C,0.100000*%
%ADD11R,1.500000X1.250000*%
%ADD12R,1.700000X1.700000*%
%ADD13O,1.700000X1.700000*%
%ADD14C,1.000000*%
%ADD15R,1.600000X1.600000*%
%ADD16O,1.600000X1.600000*%
%ADD17R,1.300000X1.500000*%
%ADD18C,0.600000*%
%ADD19C,0.400000*%
%ADD20C,0.250000*%
%ADD21C,0.254000*%
G04 APERTURE END LIST*
D10*
D11*
X156550000Y-97500000D03*
X159050000Y-97500000D03*
D12*
X154760000Y-115770000D03*
D13*
X157300000Y-115770000D03*
X154760000Y-118310000D03*
X157300000Y-118310000D03*
X154760000Y-120850000D03*
X157300000Y-120850000D03*
X154760000Y-123390000D03*
X157300000Y-123390000D03*
D14*
X156450000Y-79850000D03*
D15*
X152380000Y-64680000D03*
D16*
X160000000Y-85000000D03*
X152380000Y-67220000D03*
X160000000Y-82460000D03*
X152380000Y-69760000D03*
X160000000Y-79920000D03*
X152380000Y-72300000D03*
X160000000Y-77380000D03*
X152380000Y-74840000D03*
X160000000Y-74840000D03*
X152380000Y-77380000D03*
X160000000Y-72300000D03*
X152380000Y-79920000D03*
X160000000Y-69760000D03*
X152380000Y-82460000D03*
X160000000Y-67220000D03*
X152380000Y-85000000D03*
X160000000Y-64680000D03*
D15*
X152400000Y-105020000D03*
D16*
X160020000Y-125340000D03*
X152400000Y-107560000D03*
X160020000Y-122800000D03*
X152400000Y-110100000D03*
X160020000Y-120260000D03*
X152400000Y-112640000D03*
X160020000Y-117720000D03*
X152400000Y-115180000D03*
X160020000Y-115180000D03*
X152400000Y-117720000D03*
X160020000Y-112640000D03*
X152400000Y-120260000D03*
X160020000Y-110100000D03*
X152400000Y-122800000D03*
X160020000Y-107560000D03*
X152400000Y-125340000D03*
X160020000Y-105020000D03*
D17*
X156450000Y-82450000D03*
X156450000Y-85150000D03*
D18*
X157100000Y-102500000D03*
X156550000Y-97500000D03*
X157900000Y-91050000D03*
X160950000Y-97450000D03*
X151950000Y-99000000D03*
X151600000Y-94200000D03*
X159350000Y-91200000D03*
X155150000Y-91250000D03*
X155400000Y-102600000D03*
X150350010Y-89256581D03*
X153789329Y-94000635D03*
X153200000Y-95050000D03*
X153150000Y-97450000D03*
X153800000Y-96650000D03*
X158270368Y-95675010D03*
D19*
X157100000Y-102500000D02*
X157500000Y-102500000D01*
X157500000Y-102500000D02*
X160020000Y-105020000D01*
X162050000Y-101650000D02*
X162050000Y-66730000D01*
X162050000Y-66730000D02*
X160000000Y-64680000D01*
X160819999Y-102880001D02*
X162050000Y-101650000D01*
X160020000Y-105020000D02*
X160819999Y-104220001D01*
X160819999Y-104220001D02*
X160819999Y-102880001D01*
X154760000Y-114520000D02*
X154760000Y-115770000D01*
X156825011Y-112454989D02*
X154760000Y-114520000D01*
X156825011Y-108214989D02*
X156825011Y-112454989D01*
X160020000Y-105020000D02*
X156825011Y-108214989D01*
X157300000Y-118310000D02*
X156057921Y-118310000D01*
X156057921Y-118310000D02*
X156010001Y-118357920D01*
X152400000Y-125340000D02*
X153531370Y-125340000D01*
X153531370Y-125340000D02*
X153541370Y-125350000D01*
X155962081Y-118310000D02*
X154760000Y-118310000D01*
X153541370Y-125350000D02*
X155050000Y-125350000D01*
X155050000Y-125350000D02*
X156010001Y-124389999D01*
X156010001Y-124389999D02*
X156010001Y-118357920D01*
X156010001Y-118357920D02*
X155962081Y-118310000D01*
X149650000Y-90650000D02*
X149650000Y-87730000D01*
X149650000Y-87730000D02*
X152380000Y-85000000D01*
X151600000Y-92600000D02*
X149650000Y-90650000D01*
X151600000Y-94200000D02*
X151600000Y-92600000D01*
X150900000Y-79300000D02*
X151619999Y-78580001D01*
X151619999Y-78580001D02*
X158799999Y-78580001D01*
X158799999Y-78580001D02*
X159200001Y-78179999D01*
X159200001Y-78179999D02*
X160000000Y-77380000D01*
X150900000Y-83520000D02*
X150900000Y-79300000D01*
X152380000Y-85000000D02*
X150900000Y-83520000D01*
X157300000Y-118310000D02*
X159430000Y-118310000D01*
X159430000Y-118310000D02*
X160020000Y-117720000D01*
X160950000Y-97450000D02*
X159100000Y-97450000D01*
X159100000Y-97450000D02*
X159050000Y-97500000D01*
X151600000Y-98650000D02*
X151950000Y-99000000D01*
X151600000Y-94200000D02*
X151600000Y-98650000D01*
D20*
X159200000Y-95900000D02*
X159200000Y-91350000D01*
X159200000Y-91350000D02*
X159350000Y-91200000D01*
X158550001Y-96549999D02*
X159200000Y-95900000D01*
X157850000Y-99800000D02*
X157850000Y-96739998D01*
X157850000Y-96739998D02*
X158039999Y-96549999D01*
X158039999Y-96549999D02*
X158550001Y-96549999D01*
X156300000Y-101350000D02*
X157850000Y-99800000D01*
X156300000Y-111950000D02*
X156300000Y-101350000D01*
X153525001Y-114724999D02*
X156300000Y-111950000D01*
X153500000Y-119590000D02*
X153525001Y-119564999D01*
X153525001Y-119564999D02*
X153525001Y-114724999D01*
X154760000Y-120850000D02*
X153500000Y-119590000D01*
X155150000Y-98500000D02*
X155150000Y-91250000D01*
X155400000Y-98750000D02*
X155150000Y-98500000D01*
X155400000Y-102600000D02*
X155400000Y-98750000D01*
X156450000Y-79850000D02*
X156450000Y-80557106D01*
X156450000Y-80557106D02*
X156450000Y-82450000D01*
X153789329Y-92695900D02*
X150650009Y-89556580D01*
X153789329Y-94000635D02*
X153789329Y-92695900D01*
X150650009Y-89556580D02*
X150350010Y-89256581D01*
X153365065Y-94000635D02*
X153789329Y-94000635D01*
X152400000Y-94965700D02*
X153365065Y-94000635D01*
X152400000Y-98524996D02*
X152400000Y-94965700D01*
X152575002Y-99300002D02*
X152575002Y-98699998D01*
X152400000Y-99475004D02*
X152575002Y-99300002D01*
X152400000Y-105020000D02*
X152400000Y-99475004D01*
X152575002Y-98699998D02*
X152400000Y-98524996D01*
X152380000Y-64680000D02*
X151330000Y-64680000D01*
X154414330Y-84494330D02*
X154414330Y-94259934D01*
X153624264Y-95050000D02*
X153200000Y-95050000D01*
X154414330Y-94259934D02*
X153624264Y-95050000D01*
X152380000Y-82460000D02*
X154414330Y-84494330D01*
X154100000Y-98400000D02*
X154100000Y-110940000D01*
X154100000Y-110940000D02*
X152400000Y-112640000D01*
X153150000Y-97450000D02*
X154100000Y-98400000D01*
X152400000Y-115180000D02*
X154650000Y-112930000D01*
X154650000Y-112930000D02*
X154650000Y-97500000D01*
X154650000Y-97500000D02*
X153800000Y-96650000D01*
X157970369Y-95375011D02*
X158270368Y-95675010D01*
X156450000Y-93854642D02*
X157970369Y-95375011D01*
X156450000Y-85150000D02*
X156450000Y-93854642D01*
D21*
G36*
X162422485Y-126290000D02*
X161106041Y-126290000D01*
X161373880Y-125889151D01*
X161483113Y-125340000D01*
X161373880Y-124790849D01*
X161062811Y-124325302D01*
X160680725Y-124070000D01*
X161062811Y-123814698D01*
X161373880Y-123349151D01*
X161483113Y-122800000D01*
X161373880Y-122250849D01*
X161062811Y-121785302D01*
X160658297Y-121515014D01*
X160875134Y-121412389D01*
X161251041Y-120997423D01*
X161411904Y-120609039D01*
X161289915Y-120387000D01*
X160147000Y-120387000D01*
X160147000Y-120407000D01*
X159893000Y-120407000D01*
X159893000Y-120387000D01*
X159873000Y-120387000D01*
X159873000Y-120133000D01*
X159893000Y-120133000D01*
X159893000Y-117847000D01*
X160147000Y-117847000D01*
X160147000Y-120133000D01*
X161289915Y-120133000D01*
X161411904Y-119910961D01*
X161251041Y-119522577D01*
X160875134Y-119107611D01*
X160626633Y-118990000D01*
X160875134Y-118872389D01*
X161251041Y-118457423D01*
X161411904Y-118069039D01*
X161289915Y-117847000D01*
X160147000Y-117847000D01*
X159893000Y-117847000D01*
X159873000Y-117847000D01*
X159873000Y-117593000D01*
X159893000Y-117593000D01*
X159893000Y-117573000D01*
X160147000Y-117573000D01*
X160147000Y-117593000D01*
X161289915Y-117593000D01*
X161411904Y-117370961D01*
X161251041Y-116982577D01*
X160875134Y-116567611D01*
X160658297Y-116464986D01*
X161062811Y-116194698D01*
X161373880Y-115729151D01*
X161483113Y-115180000D01*
X161373880Y-114630849D01*
X161062811Y-114165302D01*
X160680725Y-113910000D01*
X161062811Y-113654698D01*
X161373880Y-113189151D01*
X161483113Y-112640000D01*
X161373880Y-112090849D01*
X161062811Y-111625302D01*
X160680725Y-111370000D01*
X161062811Y-111114698D01*
X161373880Y-110649151D01*
X161483113Y-110100000D01*
X161373880Y-109550849D01*
X161062811Y-109085302D01*
X160680725Y-108830000D01*
X161062811Y-108574698D01*
X161373880Y-108109151D01*
X161483113Y-107560000D01*
X161373880Y-107010849D01*
X161062811Y-106545302D01*
X160680725Y-106290000D01*
X161062811Y-106034698D01*
X161373880Y-105569151D01*
X161483113Y-105020000D01*
X161434318Y-104774689D01*
X161483916Y-104700460D01*
X161591438Y-104539542D01*
X161654999Y-104220001D01*
X161654999Y-103225869D01*
X162375434Y-102505434D01*
X162422485Y-126290000D01*
X162422485Y-126290000D01*
G37*
X162422485Y-126290000D02*
X161106041Y-126290000D01*
X161373880Y-125889151D01*
X161483113Y-125340000D01*
X161373880Y-124790849D01*
X161062811Y-124325302D01*
X160680725Y-124070000D01*
X161062811Y-123814698D01*
X161373880Y-123349151D01*
X161483113Y-122800000D01*
X161373880Y-122250849D01*
X161062811Y-121785302D01*
X160658297Y-121515014D01*
X160875134Y-121412389D01*
X161251041Y-120997423D01*
X161411904Y-120609039D01*
X161289915Y-120387000D01*
X160147000Y-120387000D01*
X160147000Y-120407000D01*
X159893000Y-120407000D01*
X159893000Y-120387000D01*
X159873000Y-120387000D01*
X159873000Y-120133000D01*
X159893000Y-120133000D01*
X159893000Y-117847000D01*
X160147000Y-117847000D01*
X160147000Y-120133000D01*
X161289915Y-120133000D01*
X161411904Y-119910961D01*
X161251041Y-119522577D01*
X160875134Y-119107611D01*
X160626633Y-118990000D01*
X160875134Y-118872389D01*
X161251041Y-118457423D01*
X161411904Y-118069039D01*
X161289915Y-117847000D01*
X160147000Y-117847000D01*
X159893000Y-117847000D01*
X159873000Y-117847000D01*
X159873000Y-117593000D01*
X159893000Y-117593000D01*
X159893000Y-117573000D01*
X160147000Y-117573000D01*
X160147000Y-117593000D01*
X161289915Y-117593000D01*
X161411904Y-117370961D01*
X161251041Y-116982577D01*
X160875134Y-116567611D01*
X160658297Y-116464986D01*
X161062811Y-116194698D01*
X161373880Y-115729151D01*
X161483113Y-115180000D01*
X161373880Y-114630849D01*
X161062811Y-114165302D01*
X160680725Y-113910000D01*
X161062811Y-113654698D01*
X161373880Y-113189151D01*
X161483113Y-112640000D01*
X161373880Y-112090849D01*
X161062811Y-111625302D01*
X160680725Y-111370000D01*
X161062811Y-111114698D01*
X161373880Y-110649151D01*
X161483113Y-110100000D01*
X161373880Y-109550849D01*
X161062811Y-109085302D01*
X160680725Y-108830000D01*
X161062811Y-108574698D01*
X161373880Y-108109151D01*
X161483113Y-107560000D01*
X161373880Y-107010849D01*
X161062811Y-106545302D01*
X160680725Y-106290000D01*
X161062811Y-106034698D01*
X161373880Y-105569151D01*
X161483113Y-105020000D01*
X161434318Y-104774689D01*
X161483916Y-104700460D01*
X161591438Y-104539542D01*
X161654999Y-104220001D01*
X161654999Y-103225869D01*
X162375434Y-102505434D01*
X162422485Y-126290000D01*
G36*
X149819683Y-90048773D02*
X150163211Y-90191419D01*
X150210087Y-90191460D01*
X153029329Y-93010702D01*
X153029329Y-93328486D01*
X152827664Y-93463234D01*
X151862599Y-94428299D01*
X151697852Y-94674861D01*
X151640000Y-94965700D01*
X151640000Y-98524996D01*
X151697852Y-98815835D01*
X151815002Y-98991163D01*
X151815002Y-99008837D01*
X151697852Y-99184165D01*
X151640000Y-99475004D01*
X151640000Y-103572560D01*
X151600000Y-103572560D01*
X151364683Y-103616838D01*
X151148559Y-103755910D01*
X151003569Y-103968110D01*
X150952560Y-104220000D01*
X150952560Y-105820000D01*
X150996838Y-106055317D01*
X151135910Y-106271441D01*
X151348110Y-106416431D01*
X151503089Y-106447815D01*
X151357189Y-106545302D01*
X151046120Y-107010849D01*
X150936887Y-107560000D01*
X151046120Y-108109151D01*
X151357189Y-108574698D01*
X151739275Y-108830000D01*
X151357189Y-109085302D01*
X151046120Y-109550849D01*
X150936887Y-110100000D01*
X151046120Y-110649151D01*
X151357189Y-111114698D01*
X151739275Y-111370000D01*
X151357189Y-111625302D01*
X151046120Y-112090849D01*
X150936887Y-112640000D01*
X151046120Y-113189151D01*
X151357189Y-113654698D01*
X151739275Y-113910000D01*
X151357189Y-114165302D01*
X151046120Y-114630849D01*
X150936887Y-115180000D01*
X151046120Y-115729151D01*
X151357189Y-116194698D01*
X151739275Y-116450000D01*
X151357189Y-116705302D01*
X151046120Y-117170849D01*
X150936887Y-117720000D01*
X151046120Y-118269151D01*
X151357189Y-118734698D01*
X151739275Y-118990000D01*
X151357189Y-119245302D01*
X151046120Y-119710849D01*
X150936887Y-120260000D01*
X151046120Y-120809151D01*
X151357189Y-121274698D01*
X151739275Y-121530000D01*
X151357189Y-121785302D01*
X151046120Y-122250849D01*
X150936887Y-122800000D01*
X151046120Y-123349151D01*
X151357189Y-123814698D01*
X151761703Y-124084986D01*
X151544866Y-124187611D01*
X151168959Y-124602577D01*
X151008096Y-124990961D01*
X151130085Y-125213000D01*
X152273000Y-125213000D01*
X152273000Y-125193000D01*
X152527000Y-125193000D01*
X152527000Y-125213000D01*
X153669915Y-125213000D01*
X153791904Y-124990961D01*
X153631041Y-124602577D01*
X153255134Y-124187611D01*
X153038297Y-124084986D01*
X153343574Y-123881006D01*
X153358946Y-123958285D01*
X153680853Y-124440054D01*
X154162622Y-124761961D01*
X154730907Y-124875000D01*
X154789093Y-124875000D01*
X155357378Y-124761961D01*
X155839147Y-124440054D01*
X156030000Y-124154422D01*
X156220853Y-124440054D01*
X156702622Y-124761961D01*
X157270907Y-124875000D01*
X157329093Y-124875000D01*
X157897378Y-124761961D01*
X158379147Y-124440054D01*
X158701054Y-123958285D01*
X158786409Y-123529176D01*
X158977189Y-123814698D01*
X159359275Y-124070000D01*
X158977189Y-124325302D01*
X158666120Y-124790849D01*
X158556887Y-125340000D01*
X158666120Y-125889151D01*
X158933959Y-126290000D01*
X153438473Y-126290000D01*
X153631041Y-126077423D01*
X153791904Y-125689039D01*
X153669915Y-125467000D01*
X152527000Y-125467000D01*
X152527000Y-125487000D01*
X152273000Y-125487000D01*
X152273000Y-125467000D01*
X151130085Y-125467000D01*
X151008096Y-125689039D01*
X151168959Y-126077423D01*
X151361527Y-126290000D01*
X149760000Y-126290000D01*
X149760000Y-89988986D01*
X149819683Y-90048773D01*
X149819683Y-90048773D01*
G37*
X149819683Y-90048773D02*
X150163211Y-90191419D01*
X150210087Y-90191460D01*
X153029329Y-93010702D01*
X153029329Y-93328486D01*
X152827664Y-93463234D01*
X151862599Y-94428299D01*
X151697852Y-94674861D01*
X151640000Y-94965700D01*
X151640000Y-98524996D01*
X151697852Y-98815835D01*
X151815002Y-98991163D01*
X151815002Y-99008837D01*
X151697852Y-99184165D01*
X151640000Y-99475004D01*
X151640000Y-103572560D01*
X151600000Y-103572560D01*
X151364683Y-103616838D01*
X151148559Y-103755910D01*
X151003569Y-103968110D01*
X150952560Y-104220000D01*
X150952560Y-105820000D01*
X150996838Y-106055317D01*
X151135910Y-106271441D01*
X151348110Y-106416431D01*
X151503089Y-106447815D01*
X151357189Y-106545302D01*
X151046120Y-107010849D01*
X150936887Y-107560000D01*
X151046120Y-108109151D01*
X151357189Y-108574698D01*
X151739275Y-108830000D01*
X151357189Y-109085302D01*
X151046120Y-109550849D01*
X150936887Y-110100000D01*
X151046120Y-110649151D01*
X151357189Y-111114698D01*
X151739275Y-111370000D01*
X151357189Y-111625302D01*
X151046120Y-112090849D01*
X150936887Y-112640000D01*
X151046120Y-113189151D01*
X151357189Y-113654698D01*
X151739275Y-113910000D01*
X151357189Y-114165302D01*
X151046120Y-114630849D01*
X150936887Y-115180000D01*
X151046120Y-115729151D01*
X151357189Y-116194698D01*
X151739275Y-116450000D01*
X151357189Y-116705302D01*
X151046120Y-117170849D01*
X150936887Y-117720000D01*
X151046120Y-118269151D01*
X151357189Y-118734698D01*
X151739275Y-118990000D01*
X151357189Y-119245302D01*
X151046120Y-119710849D01*
X150936887Y-120260000D01*
X151046120Y-120809151D01*
X151357189Y-121274698D01*
X151739275Y-121530000D01*
X151357189Y-121785302D01*
X151046120Y-122250849D01*
X150936887Y-122800000D01*
X151046120Y-123349151D01*
X151357189Y-123814698D01*
X151761703Y-124084986D01*
X151544866Y-124187611D01*
X151168959Y-124602577D01*
X151008096Y-124990961D01*
X151130085Y-125213000D01*
X152273000Y-125213000D01*
X152273000Y-125193000D01*
X152527000Y-125193000D01*
X152527000Y-125213000D01*
X153669915Y-125213000D01*
X153791904Y-124990961D01*
X153631041Y-124602577D01*
X153255134Y-124187611D01*
X153038297Y-124084986D01*
X153343574Y-123881006D01*
X153358946Y-123958285D01*
X153680853Y-124440054D01*
X154162622Y-124761961D01*
X154730907Y-124875000D01*
X154789093Y-124875000D01*
X155357378Y-124761961D01*
X155839147Y-124440054D01*
X156030000Y-124154422D01*
X156220853Y-124440054D01*
X156702622Y-124761961D01*
X157270907Y-124875000D01*
X157329093Y-124875000D01*
X157897378Y-124761961D01*
X158379147Y-124440054D01*
X158701054Y-123958285D01*
X158786409Y-123529176D01*
X158977189Y-123814698D01*
X159359275Y-124070000D01*
X158977189Y-124325302D01*
X158666120Y-124790849D01*
X158556887Y-125340000D01*
X158666120Y-125889151D01*
X158933959Y-126290000D01*
X153438473Y-126290000D01*
X153631041Y-126077423D01*
X153791904Y-125689039D01*
X153669915Y-125467000D01*
X152527000Y-125467000D01*
X152527000Y-125487000D01*
X152273000Y-125487000D01*
X152273000Y-125467000D01*
X151130085Y-125467000D01*
X151008096Y-125689039D01*
X151168959Y-126077423D01*
X151361527Y-126290000D01*
X149760000Y-126290000D01*
X149760000Y-89988986D01*
X149819683Y-90048773D01*
G36*
X154887000Y-118183000D02*
X157173000Y-118183000D01*
X157173000Y-118163000D01*
X157427000Y-118163000D01*
X157427000Y-118183000D01*
X157447000Y-118183000D01*
X157447000Y-118437000D01*
X157427000Y-118437000D01*
X157427000Y-118457000D01*
X157173000Y-118457000D01*
X157173000Y-118437000D01*
X154887000Y-118437000D01*
X154887000Y-118457000D01*
X154633000Y-118457000D01*
X154633000Y-118437000D01*
X154613000Y-118437000D01*
X154613000Y-118183000D01*
X154633000Y-118183000D01*
X154633000Y-118163000D01*
X154887000Y-118163000D01*
X154887000Y-118183000D01*
X154887000Y-118183000D01*
G37*
X154887000Y-118183000D02*
X157173000Y-118183000D01*
X157173000Y-118163000D01*
X157427000Y-118163000D01*
X157427000Y-118183000D01*
X157447000Y-118183000D01*
X157447000Y-118437000D01*
X157427000Y-118437000D01*
X157427000Y-118457000D01*
X157173000Y-118457000D01*
X157173000Y-118437000D01*
X154887000Y-118437000D01*
X154887000Y-118457000D01*
X154633000Y-118457000D01*
X154633000Y-118437000D01*
X154613000Y-118437000D01*
X154613000Y-118183000D01*
X154633000Y-118183000D01*
X154633000Y-118163000D01*
X154887000Y-118163000D01*
X154887000Y-118183000D01*
G36*
X159144866Y-76227611D02*
X158768959Y-76642577D01*
X158608096Y-77030961D01*
X158730085Y-77253000D01*
X159873000Y-77253000D01*
X159873000Y-77233000D01*
X160127000Y-77233000D01*
X160127000Y-77253000D01*
X160147000Y-77253000D01*
X160147000Y-77507000D01*
X160127000Y-77507000D01*
X160127000Y-79793000D01*
X160147000Y-79793000D01*
X160147000Y-80047000D01*
X160127000Y-80047000D01*
X160127000Y-80067000D01*
X159873000Y-80067000D01*
X159873000Y-80047000D01*
X158730085Y-80047000D01*
X158608096Y-80269039D01*
X158768959Y-80657423D01*
X159144866Y-81072389D01*
X159361703Y-81175014D01*
X158957189Y-81445302D01*
X158646120Y-81910849D01*
X158536887Y-82460000D01*
X158646120Y-83009151D01*
X158957189Y-83474698D01*
X159339275Y-83730000D01*
X158957189Y-83985302D01*
X158646120Y-84450849D01*
X158536887Y-85000000D01*
X158646120Y-85549151D01*
X158957189Y-86014698D01*
X159422736Y-86325767D01*
X159971887Y-86435000D01*
X160028113Y-86435000D01*
X160577264Y-86325767D01*
X161042811Y-86014698D01*
X161215000Y-85756999D01*
X161215000Y-101304132D01*
X160229565Y-102289567D01*
X160048560Y-102560460D01*
X159984999Y-102880001D01*
X159984999Y-103586370D01*
X159803367Y-103622499D01*
X158090434Y-101909566D01*
X157936758Y-101806883D01*
X157819541Y-101728561D01*
X157552277Y-101675399D01*
X157286799Y-101565162D01*
X157159751Y-101565051D01*
X158387401Y-100337401D01*
X158552148Y-100090839D01*
X158610000Y-99800000D01*
X158610000Y-98760000D01*
X158764250Y-98760000D01*
X158923000Y-98601250D01*
X158923000Y-97627000D01*
X159177000Y-97627000D01*
X159177000Y-98601250D01*
X159335750Y-98760000D01*
X159926309Y-98760000D01*
X160159698Y-98663327D01*
X160338327Y-98484699D01*
X160435000Y-98251310D01*
X160435000Y-97785750D01*
X160276250Y-97627000D01*
X159177000Y-97627000D01*
X158923000Y-97627000D01*
X158903000Y-97627000D01*
X158903000Y-97373000D01*
X158923000Y-97373000D01*
X158923000Y-97353000D01*
X159177000Y-97353000D01*
X159177000Y-97373000D01*
X160276250Y-97373000D01*
X160435000Y-97214250D01*
X160435000Y-96748690D01*
X160338327Y-96515301D01*
X160159698Y-96336673D01*
X159926309Y-96240000D01*
X159869300Y-96240000D01*
X159902148Y-96190840D01*
X159917711Y-96112599D01*
X159960000Y-95900000D01*
X159960000Y-91912201D01*
X160142192Y-91730327D01*
X160284838Y-91386799D01*
X160285162Y-91014833D01*
X160143117Y-90671057D01*
X159880327Y-90407808D01*
X159536799Y-90265162D01*
X159164833Y-90264838D01*
X158821057Y-90406883D01*
X158557808Y-90669673D01*
X158415162Y-91013201D01*
X158414838Y-91385167D01*
X158440000Y-91446064D01*
X158440000Y-94740157D01*
X158410291Y-94740131D01*
X157210000Y-93539840D01*
X157210000Y-86526742D01*
X157335317Y-86503162D01*
X157551441Y-86364090D01*
X157696431Y-86151890D01*
X157747440Y-85900000D01*
X157747440Y-84400000D01*
X157703162Y-84164683D01*
X157564090Y-83948559D01*
X157351890Y-83803569D01*
X157338803Y-83800919D01*
X157551441Y-83664090D01*
X157696431Y-83451890D01*
X157747440Y-83200000D01*
X157747440Y-81700000D01*
X157703162Y-81464683D01*
X157564090Y-81248559D01*
X157351890Y-81103569D01*
X157210000Y-81074836D01*
X157210000Y-80695059D01*
X157411645Y-80493765D01*
X157584803Y-80076756D01*
X157585197Y-79625225D01*
X157412767Y-79207914D01*
X157093765Y-78888355D01*
X156676756Y-78715197D01*
X156225225Y-78714803D01*
X155807914Y-78887233D01*
X155488355Y-79206235D01*
X155315197Y-79623244D01*
X155314803Y-80074775D01*
X155487233Y-80492086D01*
X155690000Y-80695207D01*
X155690000Y-81073258D01*
X155564683Y-81096838D01*
X155348559Y-81235910D01*
X155203569Y-81448110D01*
X155152560Y-81700000D01*
X155152560Y-83200000D01*
X155196838Y-83435317D01*
X155335910Y-83651441D01*
X155548110Y-83796431D01*
X155561197Y-83799081D01*
X155348559Y-83935910D01*
X155203569Y-84148110D01*
X155154077Y-84392511D01*
X155116478Y-84203491D01*
X154951731Y-83956929D01*
X153778688Y-82783886D01*
X153843113Y-82460000D01*
X153733880Y-81910849D01*
X153422811Y-81445302D01*
X153040725Y-81190000D01*
X153422811Y-80934698D01*
X153733880Y-80469151D01*
X153843113Y-79920000D01*
X153733880Y-79370849D01*
X153422811Y-78905302D01*
X153040725Y-78650000D01*
X153422811Y-78394698D01*
X153733880Y-77929151D01*
X153773684Y-77729039D01*
X158608096Y-77729039D01*
X158768959Y-78117423D01*
X159144866Y-78532389D01*
X159393367Y-78650000D01*
X159144866Y-78767611D01*
X158768959Y-79182577D01*
X158608096Y-79570961D01*
X158730085Y-79793000D01*
X159873000Y-79793000D01*
X159873000Y-77507000D01*
X158730085Y-77507000D01*
X158608096Y-77729039D01*
X153773684Y-77729039D01*
X153843113Y-77380000D01*
X153733880Y-76830849D01*
X153422811Y-76365302D01*
X153275810Y-76267079D01*
X159254330Y-76175804D01*
X159144866Y-76227611D01*
X159144866Y-76227611D01*
G37*
X159144866Y-76227611D02*
X158768959Y-76642577D01*
X158608096Y-77030961D01*
X158730085Y-77253000D01*
X159873000Y-77253000D01*
X159873000Y-77233000D01*
X160127000Y-77233000D01*
X160127000Y-77253000D01*
X160147000Y-77253000D01*
X160147000Y-77507000D01*
X160127000Y-77507000D01*
X160127000Y-79793000D01*
X160147000Y-79793000D01*
X160147000Y-80047000D01*
X160127000Y-80047000D01*
X160127000Y-80067000D01*
X159873000Y-80067000D01*
X159873000Y-80047000D01*
X158730085Y-80047000D01*
X158608096Y-80269039D01*
X158768959Y-80657423D01*
X159144866Y-81072389D01*
X159361703Y-81175014D01*
X158957189Y-81445302D01*
X158646120Y-81910849D01*
X158536887Y-82460000D01*
X158646120Y-83009151D01*
X158957189Y-83474698D01*
X159339275Y-83730000D01*
X158957189Y-83985302D01*
X158646120Y-84450849D01*
X158536887Y-85000000D01*
X158646120Y-85549151D01*
X158957189Y-86014698D01*
X159422736Y-86325767D01*
X159971887Y-86435000D01*
X160028113Y-86435000D01*
X160577264Y-86325767D01*
X161042811Y-86014698D01*
X161215000Y-85756999D01*
X161215000Y-101304132D01*
X160229565Y-102289567D01*
X160048560Y-102560460D01*
X159984999Y-102880001D01*
X159984999Y-103586370D01*
X159803367Y-103622499D01*
X158090434Y-101909566D01*
X157936758Y-101806883D01*
X157819541Y-101728561D01*
X157552277Y-101675399D01*
X157286799Y-101565162D01*
X157159751Y-101565051D01*
X158387401Y-100337401D01*
X158552148Y-100090839D01*
X158610000Y-99800000D01*
X158610000Y-98760000D01*
X158764250Y-98760000D01*
X158923000Y-98601250D01*
X158923000Y-97627000D01*
X159177000Y-97627000D01*
X159177000Y-98601250D01*
X159335750Y-98760000D01*
X159926309Y-98760000D01*
X160159698Y-98663327D01*
X160338327Y-98484699D01*
X160435000Y-98251310D01*
X160435000Y-97785750D01*
X160276250Y-97627000D01*
X159177000Y-97627000D01*
X158923000Y-97627000D01*
X158903000Y-97627000D01*
X158903000Y-97373000D01*
X158923000Y-97373000D01*
X158923000Y-97353000D01*
X159177000Y-97353000D01*
X159177000Y-97373000D01*
X160276250Y-97373000D01*
X160435000Y-97214250D01*
X160435000Y-96748690D01*
X160338327Y-96515301D01*
X160159698Y-96336673D01*
X159926309Y-96240000D01*
X159869300Y-96240000D01*
X159902148Y-96190840D01*
X159917711Y-96112599D01*
X159960000Y-95900000D01*
X159960000Y-91912201D01*
X160142192Y-91730327D01*
X160284838Y-91386799D01*
X160285162Y-91014833D01*
X160143117Y-90671057D01*
X159880327Y-90407808D01*
X159536799Y-90265162D01*
X159164833Y-90264838D01*
X158821057Y-90406883D01*
X158557808Y-90669673D01*
X158415162Y-91013201D01*
X158414838Y-91385167D01*
X158440000Y-91446064D01*
X158440000Y-94740157D01*
X158410291Y-94740131D01*
X157210000Y-93539840D01*
X157210000Y-86526742D01*
X157335317Y-86503162D01*
X157551441Y-86364090D01*
X157696431Y-86151890D01*
X157747440Y-85900000D01*
X157747440Y-84400000D01*
X157703162Y-84164683D01*
X157564090Y-83948559D01*
X157351890Y-83803569D01*
X157338803Y-83800919D01*
X157551441Y-83664090D01*
X157696431Y-83451890D01*
X157747440Y-83200000D01*
X157747440Y-81700000D01*
X157703162Y-81464683D01*
X157564090Y-81248559D01*
X157351890Y-81103569D01*
X157210000Y-81074836D01*
X157210000Y-80695059D01*
X157411645Y-80493765D01*
X157584803Y-80076756D01*
X157585197Y-79625225D01*
X157412767Y-79207914D01*
X157093765Y-78888355D01*
X156676756Y-78715197D01*
X156225225Y-78714803D01*
X155807914Y-78887233D01*
X155488355Y-79206235D01*
X155315197Y-79623244D01*
X155314803Y-80074775D01*
X155487233Y-80492086D01*
X155690000Y-80695207D01*
X155690000Y-81073258D01*
X155564683Y-81096838D01*
X155348559Y-81235910D01*
X155203569Y-81448110D01*
X155152560Y-81700000D01*
X155152560Y-83200000D01*
X155196838Y-83435317D01*
X155335910Y-83651441D01*
X155548110Y-83796431D01*
X155561197Y-83799081D01*
X155348559Y-83935910D01*
X155203569Y-84148110D01*
X155154077Y-84392511D01*
X155116478Y-84203491D01*
X154951731Y-83956929D01*
X153778688Y-82783886D01*
X153843113Y-82460000D01*
X153733880Y-81910849D01*
X153422811Y-81445302D01*
X153040725Y-81190000D01*
X153422811Y-80934698D01*
X153733880Y-80469151D01*
X153843113Y-79920000D01*
X153733880Y-79370849D01*
X153422811Y-78905302D01*
X153040725Y-78650000D01*
X153422811Y-78394698D01*
X153733880Y-77929151D01*
X153773684Y-77729039D01*
X158608096Y-77729039D01*
X158768959Y-78117423D01*
X159144866Y-78532389D01*
X159393367Y-78650000D01*
X159144866Y-78767611D01*
X158768959Y-79182577D01*
X158608096Y-79570961D01*
X158730085Y-79793000D01*
X159873000Y-79793000D01*
X159873000Y-77507000D01*
X158730085Y-77507000D01*
X158608096Y-77729039D01*
X153773684Y-77729039D01*
X153843113Y-77380000D01*
X153733880Y-76830849D01*
X153422811Y-76365302D01*
X153275810Y-76267079D01*
X159254330Y-76175804D01*
X159144866Y-76227611D01*
G36*
X151337189Y-76365302D02*
X151026120Y-76830849D01*
X150916887Y-77380000D01*
X151026120Y-77929151D01*
X151337189Y-78394698D01*
X151719275Y-78650000D01*
X151337189Y-78905302D01*
X151026120Y-79370849D01*
X150916887Y-79920000D01*
X151026120Y-80469151D01*
X151337189Y-80934698D01*
X151719275Y-81190000D01*
X151337189Y-81445302D01*
X151026120Y-81910849D01*
X150916887Y-82460000D01*
X151026120Y-83009151D01*
X151337189Y-83474698D01*
X151741703Y-83744986D01*
X151524866Y-83847611D01*
X151148959Y-84262577D01*
X150988096Y-84650961D01*
X151110085Y-84873000D01*
X152253000Y-84873000D01*
X152253000Y-84853000D01*
X152507000Y-84853000D01*
X152507000Y-84873000D01*
X152527000Y-84873000D01*
X152527000Y-85127000D01*
X152507000Y-85127000D01*
X152507000Y-86270629D01*
X152729041Y-86391914D01*
X153235134Y-86152389D01*
X153611041Y-85737423D01*
X153654330Y-85632907D01*
X153654330Y-91486099D01*
X151285132Y-89116901D01*
X151285172Y-89071414D01*
X151143127Y-88727638D01*
X150880337Y-88464389D01*
X150536809Y-88321743D01*
X150164843Y-88321419D01*
X149821067Y-88463464D01*
X149760000Y-88524425D01*
X149760000Y-85349039D01*
X150988096Y-85349039D01*
X151148959Y-85737423D01*
X151524866Y-86152389D01*
X152030959Y-86391914D01*
X152253000Y-86270629D01*
X152253000Y-85127000D01*
X151110085Y-85127000D01*
X150988096Y-85349039D01*
X149760000Y-85349039D01*
X149760000Y-76320755D01*
X151442296Y-76295071D01*
X151337189Y-76365302D01*
X151337189Y-76365302D01*
G37*
X151337189Y-76365302D02*
X151026120Y-76830849D01*
X150916887Y-77380000D01*
X151026120Y-77929151D01*
X151337189Y-78394698D01*
X151719275Y-78650000D01*
X151337189Y-78905302D01*
X151026120Y-79370849D01*
X150916887Y-79920000D01*
X151026120Y-80469151D01*
X151337189Y-80934698D01*
X151719275Y-81190000D01*
X151337189Y-81445302D01*
X151026120Y-81910849D01*
X150916887Y-82460000D01*
X151026120Y-83009151D01*
X151337189Y-83474698D01*
X151741703Y-83744986D01*
X151524866Y-83847611D01*
X151148959Y-84262577D01*
X150988096Y-84650961D01*
X151110085Y-84873000D01*
X152253000Y-84873000D01*
X152253000Y-84853000D01*
X152507000Y-84853000D01*
X152507000Y-84873000D01*
X152527000Y-84873000D01*
X152527000Y-85127000D01*
X152507000Y-85127000D01*
X152507000Y-86270629D01*
X152729041Y-86391914D01*
X153235134Y-86152389D01*
X153611041Y-85737423D01*
X153654330Y-85632907D01*
X153654330Y-91486099D01*
X151285132Y-89116901D01*
X151285172Y-89071414D01*
X151143127Y-88727638D01*
X150880337Y-88464389D01*
X150536809Y-88321743D01*
X150164843Y-88321419D01*
X149821067Y-88463464D01*
X149760000Y-88524425D01*
X149760000Y-85349039D01*
X150988096Y-85349039D01*
X151148959Y-85737423D01*
X151524866Y-86152389D01*
X152030959Y-86391914D01*
X152253000Y-86270629D01*
X152253000Y-85127000D01*
X151110085Y-85127000D01*
X150988096Y-85349039D01*
X149760000Y-85349039D01*
X149760000Y-76320755D01*
X151442296Y-76295071D01*
X151337189Y-76365302D01*
M02*
