G04 #@! TF.FileFunction,Legend,Top*
%FSLAX46Y46*%
G04 Gerber Fmt 4.6, Leading zero omitted, Abs format (unit mm)*
G04 Created by KiCad (PCBNEW 4.0.7-e2-6376~58~ubuntu16.04.1) date Tue Jul  9 21:41:40 2024*
%MOMM*%
%LPD*%
G01*
G04 APERTURE LIST*
%ADD10C,0.100000*%
%ADD11C,0.200000*%
%ADD12C,0.250000*%
%ADD13C,0.120000*%
%ADD14C,0.150000*%
%ADD15R,2.100000X2.100000*%
%ADD16O,2.100000X2.100000*%
%ADD17R,2.000000X2.000000*%
%ADD18O,2.000000X2.000000*%
%ADD19R,0.950000X1.900000*%
%ADD20R,1.900000X0.950000*%
G04 APERTURE END LIST*
D10*
D11*
X156671429Y-125711905D02*
X156671429Y-124911905D01*
X156861905Y-124911905D01*
X156976191Y-124950000D01*
X157052382Y-125026190D01*
X157090477Y-125102381D01*
X157128572Y-125254762D01*
X157128572Y-125369048D01*
X157090477Y-125521429D01*
X157052382Y-125597619D01*
X156976191Y-125673810D01*
X156861905Y-125711905D01*
X156671429Y-125711905D01*
X157623810Y-124911905D02*
X157776191Y-124911905D01*
X157852382Y-124950000D01*
X157928572Y-125026190D01*
X157966667Y-125178571D01*
X157966667Y-125445238D01*
X157928572Y-125597619D01*
X157852382Y-125673810D01*
X157776191Y-125711905D01*
X157623810Y-125711905D01*
X157547620Y-125673810D01*
X157471429Y-125597619D01*
X157433334Y-125445238D01*
X157433334Y-125178571D01*
X157471429Y-125026190D01*
X157547620Y-124950000D01*
X157623810Y-124911905D01*
X154597619Y-125585714D02*
X154559524Y-125623810D01*
X154445238Y-125661905D01*
X154369048Y-125661905D01*
X154254762Y-125623810D01*
X154178571Y-125547619D01*
X154140476Y-125471429D01*
X154102381Y-125319048D01*
X154102381Y-125204762D01*
X154140476Y-125052381D01*
X154178571Y-124976190D01*
X154254762Y-124900000D01*
X154369048Y-124861905D01*
X154445238Y-124861905D01*
X154559524Y-124900000D01*
X154597619Y-124938095D01*
X154940476Y-125661905D02*
X154940476Y-124861905D01*
X155397619Y-125661905D02*
X155054762Y-125204762D01*
X155397619Y-124861905D02*
X154940476Y-125319048D01*
X161352381Y-121261905D02*
X161352381Y-120461905D01*
X161619048Y-121033333D01*
X161885715Y-120461905D01*
X161885715Y-121261905D01*
X162228572Y-121223810D02*
X162342858Y-121261905D01*
X162533334Y-121261905D01*
X162609524Y-121223810D01*
X162647620Y-121185714D01*
X162685715Y-121109524D01*
X162685715Y-121033333D01*
X162647620Y-120957143D01*
X162609524Y-120919048D01*
X162533334Y-120880952D01*
X162380953Y-120842857D01*
X162304762Y-120804762D01*
X162266667Y-120766667D01*
X162228572Y-120690476D01*
X162228572Y-120614286D01*
X162266667Y-120538095D01*
X162304762Y-120500000D01*
X162380953Y-120461905D01*
X162571429Y-120461905D01*
X162685715Y-120500000D01*
X149900000Y-121411905D02*
X149900000Y-120611905D01*
X150090476Y-120611905D01*
X150204762Y-120650000D01*
X150280953Y-120726190D01*
X150319048Y-120802381D01*
X150357143Y-120954762D01*
X150357143Y-121069048D01*
X150319048Y-121221429D01*
X150280953Y-121297619D01*
X150204762Y-121373810D01*
X150090476Y-121411905D01*
X149900000Y-121411905D01*
X150700000Y-121411905D02*
X150700000Y-120611905D01*
D12*
X154630952Y-71502381D02*
X154630952Y-70502381D01*
X155011905Y-70502381D01*
X155107143Y-70550000D01*
X155154762Y-70597619D01*
X155202381Y-70692857D01*
X155202381Y-70835714D01*
X155154762Y-70930952D01*
X155107143Y-70978571D01*
X155011905Y-71026190D01*
X154630952Y-71026190D01*
X155773809Y-71502381D02*
X155678571Y-71454762D01*
X155630952Y-71407143D01*
X155583333Y-71311905D01*
X155583333Y-71026190D01*
X155630952Y-70930952D01*
X155678571Y-70883333D01*
X155773809Y-70835714D01*
X155916667Y-70835714D01*
X156011905Y-70883333D01*
X156059524Y-70930952D01*
X156107143Y-71026190D01*
X156107143Y-71311905D01*
X156059524Y-71407143D01*
X156011905Y-71454762D01*
X155916667Y-71502381D01*
X155773809Y-71502381D01*
X156488095Y-71454762D02*
X156583333Y-71502381D01*
X156773809Y-71502381D01*
X156869048Y-71454762D01*
X156916667Y-71359524D01*
X156916667Y-71311905D01*
X156869048Y-71216667D01*
X156773809Y-71169048D01*
X156630952Y-71169048D01*
X156535714Y-71121429D01*
X156488095Y-71026190D01*
X156488095Y-70978571D01*
X156535714Y-70883333D01*
X156630952Y-70835714D01*
X156773809Y-70835714D01*
X156869048Y-70883333D01*
X154645238Y-69502381D02*
X154645238Y-68502381D01*
X155026191Y-68502381D01*
X155121429Y-68550000D01*
X155169048Y-68597619D01*
X155216667Y-68692857D01*
X155216667Y-68835714D01*
X155169048Y-68930952D01*
X155121429Y-68978571D01*
X155026191Y-69026190D01*
X154645238Y-69026190D01*
X155788095Y-69502381D02*
X155692857Y-69454762D01*
X155645238Y-69407143D01*
X155597619Y-69311905D01*
X155597619Y-69026190D01*
X155645238Y-68930952D01*
X155692857Y-68883333D01*
X155788095Y-68835714D01*
X155930953Y-68835714D01*
X156026191Y-68883333D01*
X156073810Y-68930952D01*
X156121429Y-69026190D01*
X156121429Y-69311905D01*
X156073810Y-69407143D01*
X156026191Y-69454762D01*
X155930953Y-69502381D01*
X155788095Y-69502381D01*
X156692857Y-69502381D02*
X156597619Y-69454762D01*
X156550000Y-69359524D01*
X156550000Y-68502381D01*
X157454763Y-69454762D02*
X157359525Y-69502381D01*
X157169048Y-69502381D01*
X157073810Y-69454762D01*
X157026191Y-69359524D01*
X157026191Y-68978571D01*
X157073810Y-68883333D01*
X157169048Y-68835714D01*
X157359525Y-68835714D01*
X157454763Y-68883333D01*
X157502382Y-68978571D01*
X157502382Y-69073810D01*
X157026191Y-69169048D01*
X154054762Y-66647619D02*
X154102381Y-66600000D01*
X154197619Y-66552381D01*
X154435715Y-66552381D01*
X154530953Y-66600000D01*
X154578572Y-66647619D01*
X154626191Y-66742857D01*
X154626191Y-66838095D01*
X154578572Y-66980952D01*
X154007143Y-67552381D01*
X154626191Y-67552381D01*
X154959524Y-66552381D02*
X155626191Y-67552381D01*
X155626191Y-66552381D02*
X154959524Y-67552381D01*
X156959524Y-66552381D02*
X157054763Y-66552381D01*
X157150001Y-66600000D01*
X157197620Y-66647619D01*
X157245239Y-66742857D01*
X157292858Y-66933333D01*
X157292858Y-67171429D01*
X157245239Y-67361905D01*
X157197620Y-67457143D01*
X157150001Y-67504762D01*
X157054763Y-67552381D01*
X156959524Y-67552381D01*
X156864286Y-67504762D01*
X156816667Y-67457143D01*
X156769048Y-67361905D01*
X156721429Y-67171429D01*
X156721429Y-66933333D01*
X156769048Y-66742857D01*
X156816667Y-66647619D01*
X156864286Y-66600000D01*
X156959524Y-66552381D01*
X157626191Y-66552381D02*
X158245239Y-66552381D01*
X157911905Y-66933333D01*
X158054763Y-66933333D01*
X158150001Y-66980952D01*
X158197620Y-67028571D01*
X158245239Y-67123810D01*
X158245239Y-67361905D01*
X158197620Y-67457143D01*
X158150001Y-67504762D01*
X158054763Y-67552381D01*
X157769048Y-67552381D01*
X157673810Y-67504762D01*
X157626191Y-67457143D01*
D13*
X153430000Y-124720000D02*
X158630000Y-124720000D01*
X153430000Y-117040000D02*
X153430000Y-124720000D01*
X158630000Y-114440000D02*
X158630000Y-124720000D01*
X153430000Y-117040000D02*
X156030000Y-117040000D01*
X156030000Y-117040000D02*
X156030000Y-114440000D01*
X156030000Y-114440000D02*
X158630000Y-114440000D01*
X153430000Y-115770000D02*
X153430000Y-114440000D01*
X153430000Y-114440000D02*
X154760000Y-114440000D01*
X157190000Y-63350000D02*
G75*
G02X155190000Y-63350000I-1000000J0D01*
G01*
X155190000Y-63350000D02*
X153540000Y-63350000D01*
X153540000Y-63350000D02*
X153540000Y-86330000D01*
X153540000Y-86330000D02*
X158840000Y-86330000D01*
X158840000Y-86330000D02*
X158840000Y-63350000D01*
X158840000Y-63350000D02*
X157190000Y-63350000D01*
X151050000Y-63290000D02*
X151050000Y-86390000D01*
X151050000Y-86390000D02*
X161330000Y-86390000D01*
X161330000Y-86390000D02*
X161330000Y-63290000D01*
X161330000Y-63290000D02*
X151050000Y-63290000D01*
X157210000Y-103690000D02*
G75*
G02X155210000Y-103690000I-1000000J0D01*
G01*
X155210000Y-103690000D02*
X153560000Y-103690000D01*
X153560000Y-103690000D02*
X153560000Y-126670000D01*
X153560000Y-126670000D02*
X158860000Y-126670000D01*
X158860000Y-126670000D02*
X158860000Y-103690000D01*
X158860000Y-103690000D02*
X157210000Y-103690000D01*
X151070000Y-103630000D02*
X151070000Y-126730000D01*
X151070000Y-126730000D02*
X161350000Y-126730000D01*
X161350000Y-126730000D02*
X161350000Y-103630000D01*
X161350000Y-103630000D02*
X151070000Y-103630000D01*
D14*
X161475000Y-89875000D02*
X160900000Y-89875000D01*
X161475000Y-100225000D02*
X160800000Y-100225000D01*
X151125000Y-100225000D02*
X151800000Y-100225000D01*
X151125000Y-89875000D02*
X151800000Y-89875000D01*
X161475000Y-89875000D02*
X161475000Y-90550000D01*
X151125000Y-89875000D02*
X151125000Y-90550000D01*
X151125000Y-100225000D02*
X151125000Y-99550000D01*
X161475000Y-100225000D02*
X161475000Y-99550000D01*
X160900000Y-89875000D02*
X160900000Y-88600000D01*
X154633334Y-113402381D02*
X154633334Y-114116667D01*
X154585714Y-114259524D01*
X154490476Y-114354762D01*
X154347619Y-114402381D01*
X154252381Y-114402381D01*
X154966667Y-113402381D02*
X155538096Y-113402381D01*
X155252381Y-114402381D02*
X155252381Y-113402381D01*
X155823810Y-114116667D02*
X156300001Y-114116667D01*
X155728572Y-114402381D02*
X156061905Y-113402381D01*
X156395239Y-114402381D01*
X157252382Y-113450000D02*
X157157144Y-113402381D01*
X157014287Y-113402381D01*
X156871429Y-113450000D01*
X156776191Y-113545238D01*
X156728572Y-113640476D01*
X156680953Y-113830952D01*
X156680953Y-113973810D01*
X156728572Y-114164286D01*
X156776191Y-114259524D01*
X156871429Y-114354762D01*
X157014287Y-114402381D01*
X157109525Y-114402381D01*
X157252382Y-114354762D01*
X157300001Y-114307143D01*
X157300001Y-113973810D01*
X157109525Y-113973810D01*
X156083334Y-64652381D02*
X155607143Y-64652381D01*
X155559524Y-65128571D01*
X155607143Y-65080952D01*
X155702381Y-65033333D01*
X155940477Y-65033333D01*
X156035715Y-65080952D01*
X156083334Y-65128571D01*
X156130953Y-65223810D01*
X156130953Y-65461905D01*
X156083334Y-65557143D01*
X156035715Y-65604762D01*
X155940477Y-65652381D01*
X155702381Y-65652381D01*
X155607143Y-65604762D01*
X155559524Y-65557143D01*
X157035715Y-65652381D02*
X156559524Y-65652381D01*
X156559524Y-64652381D01*
X155735715Y-105002381D02*
X155545238Y-105002381D01*
X155450000Y-105050000D01*
X155402381Y-105097619D01*
X155307143Y-105240476D01*
X155259524Y-105430952D01*
X155259524Y-105811905D01*
X155307143Y-105907143D01*
X155354762Y-105954762D01*
X155450000Y-106002381D01*
X155640477Y-106002381D01*
X155735715Y-105954762D01*
X155783334Y-105907143D01*
X155830953Y-105811905D01*
X155830953Y-105573810D01*
X155783334Y-105478571D01*
X155735715Y-105430952D01*
X155640477Y-105383333D01*
X155450000Y-105383333D01*
X155354762Y-105430952D01*
X155307143Y-105478571D01*
X155259524Y-105573810D01*
X156735715Y-106002381D02*
X156259524Y-106002381D01*
X156259524Y-105002381D01*
X161702381Y-89011905D02*
X162511905Y-89011905D01*
X162607143Y-88964286D01*
X162654762Y-88916667D01*
X162702381Y-88821429D01*
X162702381Y-88630952D01*
X162654762Y-88535714D01*
X162607143Y-88488095D01*
X162511905Y-88440476D01*
X161702381Y-88440476D01*
X162702381Y-87440476D02*
X162702381Y-88011905D01*
X162702381Y-87726191D02*
X161702381Y-87726191D01*
X161845238Y-87821429D01*
X161940476Y-87916667D01*
X161988095Y-88011905D01*
X152176191Y-91833333D02*
X152557143Y-91833333D01*
X152100000Y-92061905D02*
X152366667Y-91261905D01*
X152633334Y-92061905D01*
X152785714Y-91261905D02*
X153242857Y-91261905D01*
X153014286Y-92061905D02*
X153014286Y-91261905D01*
X153776191Y-91642857D02*
X153509524Y-91642857D01*
X153509524Y-92061905D02*
X153509524Y-91261905D01*
X153890477Y-91261905D01*
X154614286Y-92061905D02*
X154157143Y-92061905D01*
X154385714Y-92061905D02*
X154385714Y-91261905D01*
X154309524Y-91376190D01*
X154233333Y-91452381D01*
X154157143Y-91490476D01*
X155338096Y-91261905D02*
X154957143Y-91261905D01*
X154919048Y-91642857D01*
X154957143Y-91604762D01*
X155033334Y-91566667D01*
X155223810Y-91566667D01*
X155300000Y-91604762D01*
X155338096Y-91642857D01*
X155376191Y-91719048D01*
X155376191Y-91909524D01*
X155338096Y-91985714D01*
X155300000Y-92023810D01*
X155223810Y-92061905D01*
X155033334Y-92061905D01*
X154957143Y-92023810D01*
X154919048Y-91985714D01*
X155871429Y-91261905D02*
X155947620Y-91261905D01*
X156023810Y-91300000D01*
X156061905Y-91338095D01*
X156100001Y-91414286D01*
X156138096Y-91566667D01*
X156138096Y-91757143D01*
X156100001Y-91909524D01*
X156061905Y-91985714D01*
X156023810Y-92023810D01*
X155947620Y-92061905D01*
X155871429Y-92061905D01*
X155795239Y-92023810D01*
X155757143Y-91985714D01*
X155719048Y-91909524D01*
X155680953Y-91757143D01*
X155680953Y-91566667D01*
X155719048Y-91414286D01*
X155757143Y-91338095D01*
X155795239Y-91300000D01*
X155871429Y-91261905D01*
X156823810Y-91528571D02*
X156823810Y-92061905D01*
X156633334Y-91223810D02*
X156442858Y-91795238D01*
X156938096Y-91795238D01*
X157204763Y-91833333D02*
X157585715Y-91833333D01*
X157128572Y-92061905D02*
X157395239Y-91261905D01*
X157661906Y-92061905D01*
X157890477Y-92023810D02*
X158004763Y-92061905D01*
X158195239Y-92061905D01*
X158271429Y-92023810D01*
X158309525Y-91985714D01*
X158347620Y-91909524D01*
X158347620Y-91833333D01*
X158309525Y-91757143D01*
X158271429Y-91719048D01*
X158195239Y-91680952D01*
X158042858Y-91642857D01*
X157966667Y-91604762D01*
X157928572Y-91566667D01*
X157890477Y-91490476D01*
X157890477Y-91414286D01*
X157928572Y-91338095D01*
X157966667Y-91300000D01*
X158042858Y-91261905D01*
X158233334Y-91261905D01*
X158347620Y-91300000D01*
X158690477Y-91757143D02*
X159300001Y-91757143D01*
X159642858Y-91833333D02*
X160023810Y-91833333D01*
X159566667Y-92061905D02*
X159833334Y-91261905D01*
X160100001Y-92061905D01*
%LPC*%
D15*
X154760000Y-115770000D03*
D16*
X157300000Y-115770000D03*
X154760000Y-118310000D03*
X157300000Y-118310000D03*
X154760000Y-120850000D03*
X157300000Y-120850000D03*
X154760000Y-123390000D03*
X157300000Y-123390000D03*
D17*
X152380000Y-64680000D03*
D18*
X160000000Y-85000000D03*
X152380000Y-67220000D03*
X160000000Y-82460000D03*
X152380000Y-69760000D03*
X160000000Y-79920000D03*
X152380000Y-72300000D03*
X160000000Y-77380000D03*
X152380000Y-74840000D03*
X160000000Y-74840000D03*
X152380000Y-77380000D03*
X160000000Y-72300000D03*
X152380000Y-79920000D03*
X160000000Y-69760000D03*
X152380000Y-82460000D03*
X160000000Y-67220000D03*
X152380000Y-85000000D03*
X160000000Y-64680000D03*
D17*
X152400000Y-105020000D03*
D18*
X160020000Y-125340000D03*
X152400000Y-107560000D03*
X160020000Y-122800000D03*
X152400000Y-110100000D03*
X160020000Y-120260000D03*
X152400000Y-112640000D03*
X160020000Y-117720000D03*
X152400000Y-115180000D03*
X160020000Y-115180000D03*
X152400000Y-117720000D03*
X160020000Y-112640000D03*
X152400000Y-120260000D03*
X160020000Y-110100000D03*
X152400000Y-122800000D03*
X160020000Y-107560000D03*
X152400000Y-125340000D03*
X160020000Y-105020000D03*
D19*
X160300000Y-89350000D03*
X159500000Y-89350000D03*
X158700000Y-89350000D03*
X157900000Y-89350000D03*
X157100000Y-89350000D03*
X156300000Y-89350000D03*
X155500000Y-89350000D03*
X154700000Y-89350000D03*
X153900000Y-89350000D03*
X153100000Y-89350000D03*
X152300000Y-89350000D03*
D20*
X150600000Y-91050000D03*
X150600000Y-91850000D03*
X150600000Y-92650000D03*
X150600000Y-93450000D03*
X150600000Y-94250000D03*
X150600000Y-95050000D03*
X150600000Y-95850000D03*
X150600000Y-96650000D03*
X150600000Y-97450000D03*
X150600000Y-98250000D03*
X150600000Y-99050000D03*
D19*
X152300000Y-100750000D03*
X153100000Y-100750000D03*
X153900000Y-100750000D03*
X154700000Y-100750000D03*
X155500000Y-100750000D03*
X156300000Y-100750000D03*
X157100000Y-100750000D03*
X157900000Y-100750000D03*
X158700000Y-100750000D03*
X159500000Y-100750000D03*
X160300000Y-100750000D03*
D20*
X162000000Y-99050000D03*
X162000000Y-98250000D03*
X162000000Y-97450000D03*
X162000000Y-96650000D03*
X162000000Y-95850000D03*
X162000000Y-95050000D03*
X162000000Y-94250000D03*
X162000000Y-93450000D03*
X162000000Y-92650000D03*
X162000000Y-91850000D03*
X162000000Y-91050000D03*
M02*
