%FSLAX45Y45*%
G04 Gerber Fmt 4.5, Leading zero omitted, Abs format (unit mm)*
G04 Created by KiCad (PCBNEW 4.0.7-e2-6376~58~ubuntu16.04.1) date Tue Jul  9 21:44:05 2024*
%MOMM*%
%LPD*%
G01*
G04 APERTURE LIST*
%ADD10C,0.127000*%
%ADD11C,0.150000*%
%ADD12C,0.200000*%
%ADD13C,0.300000*%
G04 APERTURE END LIST*
D10*
D11*
X14905000Y-8860000D02*
X14905000Y-12700000D01*
X16320000Y-12700000D02*
X14905000Y-12700000D01*
X16320000Y-10125000D02*
X16320000Y-12700000D01*
X16320000Y-6295000D02*
X16320000Y-10125000D01*
X14905000Y-6295000D02*
X16320000Y-6295000D01*
X14905000Y-8860000D02*
X14905000Y-6295000D01*
D12*
X15015001Y-8905658D02*
X15055001Y-8945658D01*
X15055001Y-8905658D02*
X15015001Y-8945658D01*
X15140000Y-9400000D02*
X15180000Y-9440000D01*
X15180000Y-9400000D02*
X15140000Y-9440000D01*
X15175000Y-9880000D02*
X15215000Y-9920000D01*
X15215000Y-9880000D02*
X15175000Y-9920000D01*
X15295000Y-9725000D02*
X15335000Y-9765000D01*
X15335000Y-9725000D02*
X15295000Y-9765000D01*
X15300000Y-9485000D02*
X15340000Y-9525000D01*
X15340000Y-9485000D02*
X15300000Y-9525000D01*
X15358933Y-9380064D02*
X15398933Y-9420064D01*
X15398933Y-9380064D02*
X15358933Y-9420064D01*
X15360000Y-9645000D02*
X15400000Y-9685000D01*
X15400000Y-9645000D02*
X15360000Y-9685000D01*
X15495000Y-9105000D02*
X15535000Y-9145000D01*
X15535000Y-9105000D02*
X15495000Y-9145000D01*
X15520000Y-10240000D02*
X15560000Y-10280000D01*
X15560000Y-10240000D02*
X15520000Y-10280000D01*
X15635000Y-9730000D02*
X15675000Y-9770000D01*
X15675000Y-9730000D02*
X15635000Y-9770000D01*
X15690000Y-10230000D02*
X15730000Y-10270000D01*
X15730000Y-10230000D02*
X15690000Y-10270000D01*
X15770000Y-9085000D02*
X15810000Y-9125000D01*
X15810000Y-9085000D02*
X15770000Y-9125000D01*
X15807037Y-9547501D02*
X15847037Y-9587501D01*
X15847037Y-9547501D02*
X15807037Y-9587501D01*
X15915000Y-9100000D02*
X15955000Y-9140000D01*
X15955000Y-9100000D02*
X15915000Y-9140000D01*
X16075000Y-9725000D02*
X16115000Y-9765000D01*
X16115000Y-9725000D02*
X16075000Y-9765000D01*
X15278000Y-6468000D02*
G75*
G03X15278000Y-6468000I-40000J0D01*
G01*
X15278000Y-6722000D02*
G75*
G03X15278000Y-6722000I-40000J0D01*
G01*
X15278000Y-6976000D02*
G75*
G03X15278000Y-6976000I-40000J0D01*
G01*
X15278000Y-7230000D02*
G75*
G03X15278000Y-7230000I-40000J0D01*
G01*
X15278000Y-7484000D02*
G75*
G03X15278000Y-7484000I-40000J0D01*
G01*
X15278000Y-7738000D02*
G75*
G03X15278000Y-7738000I-40000J0D01*
G01*
X15278000Y-7992000D02*
G75*
G03X15278000Y-7992000I-40000J0D01*
G01*
X15278000Y-8246000D02*
G75*
G03X15278000Y-8246000I-40000J0D01*
G01*
X15278000Y-8500000D02*
G75*
G03X15278000Y-8500000I-40000J0D01*
G01*
X15280000Y-10502000D02*
G75*
G03X15280000Y-10502000I-40000J0D01*
G01*
X15280000Y-10756000D02*
G75*
G03X15280000Y-10756000I-40000J0D01*
G01*
X15280000Y-11010000D02*
G75*
G03X15280000Y-11010000I-40000J0D01*
G01*
X15280000Y-11264000D02*
G75*
G03X15280000Y-11264000I-40000J0D01*
G01*
X15280000Y-11518000D02*
G75*
G03X15280000Y-11518000I-40000J0D01*
G01*
X15280000Y-11772000D02*
G75*
G03X15280000Y-11772000I-40000J0D01*
G01*
X15280000Y-12026000D02*
G75*
G03X15280000Y-12026000I-40000J0D01*
G01*
X15280000Y-12280000D02*
G75*
G03X15280000Y-12280000I-40000J0D01*
G01*
X15280000Y-12534000D02*
G75*
G03X15280000Y-12534000I-40000J0D01*
G01*
X16040000Y-6468000D02*
G75*
G03X16040000Y-6468000I-40000J0D01*
G01*
X16040000Y-6722000D02*
G75*
G03X16040000Y-6722000I-40000J0D01*
G01*
X16040000Y-6976000D02*
G75*
G03X16040000Y-6976000I-40000J0D01*
G01*
X16040000Y-7230000D02*
G75*
G03X16040000Y-7230000I-40000J0D01*
G01*
X16040000Y-7484000D02*
G75*
G03X16040000Y-7484000I-40000J0D01*
G01*
X16040000Y-7738000D02*
G75*
G03X16040000Y-7738000I-40000J0D01*
G01*
X16040000Y-7992000D02*
G75*
G03X16040000Y-7992000I-40000J0D01*
G01*
X16040000Y-8246000D02*
G75*
G03X16040000Y-8246000I-40000J0D01*
G01*
X16040000Y-8500000D02*
G75*
G03X16040000Y-8500000I-40000J0D01*
G01*
X16042000Y-10502000D02*
G75*
G03X16042000Y-10502000I-40000J0D01*
G01*
X16042000Y-10756000D02*
G75*
G03X16042000Y-10756000I-40000J0D01*
G01*
X16042000Y-11010000D02*
G75*
G03X16042000Y-11010000I-40000J0D01*
G01*
X16042000Y-11264000D02*
G75*
G03X16042000Y-11264000I-40000J0D01*
G01*
X16042000Y-11518000D02*
G75*
G03X16042000Y-11518000I-40000J0D01*
G01*
X16042000Y-11772000D02*
G75*
G03X16042000Y-11772000I-40000J0D01*
G01*
X16042000Y-12026000D02*
G75*
G03X16042000Y-12026000I-40000J0D01*
G01*
X16042000Y-12280000D02*
G75*
G03X16042000Y-12280000I-40000J0D01*
G01*
X16042000Y-12534000D02*
G75*
G03X16042000Y-12534000I-40000J0D01*
G01*
X15476000Y-11527000D02*
X15476000Y-11627000D01*
X15426000Y-11577000D02*
X15526000Y-11577000D01*
X15476000Y-11781000D02*
X15476000Y-11881000D01*
X15426000Y-11831000D02*
X15526000Y-11831000D01*
X15476000Y-12035000D02*
X15476000Y-12135000D01*
X15426000Y-12085000D02*
X15526000Y-12085000D01*
X15476000Y-12289000D02*
X15476000Y-12389000D01*
X15426000Y-12339000D02*
X15526000Y-12339000D01*
X15730000Y-11527000D02*
X15730000Y-11627000D01*
X15680000Y-11577000D02*
X15780000Y-11577000D01*
X15730000Y-11781000D02*
X15730000Y-11881000D01*
X15680000Y-11831000D02*
X15780000Y-11831000D01*
X15730000Y-12035000D02*
X15730000Y-12135000D01*
X15680000Y-12085000D02*
X15780000Y-12085000D01*
X15730000Y-12289000D02*
X15730000Y-12389000D01*
X15680000Y-12339000D02*
X15780000Y-12339000D01*
D13*
X15168928Y-13173214D02*
X15168928Y-12873214D01*
X15240357Y-12873214D01*
X15283214Y-12887500D01*
X15311786Y-12916071D01*
X15326071Y-12944643D01*
X15340357Y-13001786D01*
X15340357Y-13044643D01*
X15326071Y-13101786D01*
X15311786Y-13130357D01*
X15283214Y-13158929D01*
X15240357Y-13173214D01*
X15168928Y-13173214D01*
X15468928Y-13173214D02*
X15468928Y-12973214D01*
X15468928Y-13030357D02*
X15483214Y-13001786D01*
X15497500Y-12987500D01*
X15526071Y-12973214D01*
X15554643Y-12973214D01*
X15654643Y-13173214D02*
X15654643Y-12973214D01*
X15654643Y-12873214D02*
X15640357Y-12887500D01*
X15654643Y-12901786D01*
X15668928Y-12887500D01*
X15654643Y-12873214D01*
X15654643Y-12901786D01*
X15840357Y-13173214D02*
X15811786Y-13158929D01*
X15797500Y-13130357D01*
X15797500Y-12873214D01*
X15997500Y-13173214D02*
X15968928Y-13158929D01*
X15954643Y-13130357D01*
X15954643Y-12873214D01*
X16340357Y-13173214D02*
X16340357Y-12873214D01*
X16440357Y-13087500D01*
X16540357Y-12873214D01*
X16540357Y-13173214D01*
X16811786Y-13173214D02*
X16811786Y-13016071D01*
X16797500Y-12987500D01*
X16768928Y-12973214D01*
X16711786Y-12973214D01*
X16683214Y-12987500D01*
X16811786Y-13158929D02*
X16783214Y-13173214D01*
X16711786Y-13173214D01*
X16683214Y-13158929D01*
X16668928Y-13130357D01*
X16668928Y-13101786D01*
X16683214Y-13073214D01*
X16711786Y-13058929D01*
X16783214Y-13058929D01*
X16811786Y-13044643D01*
X16954643Y-12973214D02*
X16954643Y-13273214D01*
X16954643Y-12987500D02*
X16983214Y-12973214D01*
X17040357Y-12973214D01*
X17068929Y-12987500D01*
X17083214Y-13001786D01*
X17097500Y-13030357D01*
X17097500Y-13116071D01*
X17083214Y-13144643D01*
X17068929Y-13158929D01*
X17040357Y-13173214D01*
X16983214Y-13173214D01*
X16954643Y-13158929D01*
X17226071Y-13144643D02*
X17240357Y-13158929D01*
X17226071Y-13173214D01*
X17211786Y-13158929D01*
X17226071Y-13144643D01*
X17226071Y-13173214D01*
X17226071Y-12987500D02*
X17240357Y-13001786D01*
X17226071Y-13016071D01*
X17211786Y-13001786D01*
X17226071Y-12987500D01*
X17226071Y-13016071D01*
X14857500Y-13647500D02*
X14897500Y-13687500D01*
X14897500Y-13647500D02*
X14857500Y-13687500D01*
X15226071Y-13503214D02*
X15254643Y-13503214D01*
X15283214Y-13517500D01*
X15297500Y-13531786D01*
X15311786Y-13560357D01*
X15326071Y-13617500D01*
X15326071Y-13688929D01*
X15311786Y-13746071D01*
X15297500Y-13774643D01*
X15283214Y-13788929D01*
X15254643Y-13803214D01*
X15226071Y-13803214D01*
X15197500Y-13788929D01*
X15183214Y-13774643D01*
X15168928Y-13746071D01*
X15154643Y-13688929D01*
X15154643Y-13617500D01*
X15168928Y-13560357D01*
X15183214Y-13531786D01*
X15197500Y-13517500D01*
X15226071Y-13503214D01*
X15454643Y-13774643D02*
X15468928Y-13788929D01*
X15454643Y-13803214D01*
X15440357Y-13788929D01*
X15454643Y-13774643D01*
X15454643Y-13803214D01*
X15726071Y-13603214D02*
X15726071Y-13803214D01*
X15654643Y-13488929D02*
X15583214Y-13703214D01*
X15768928Y-13703214D01*
X15940357Y-13503214D02*
X15968928Y-13503214D01*
X15997500Y-13517500D01*
X16011786Y-13531786D01*
X16026071Y-13560357D01*
X16040357Y-13617500D01*
X16040357Y-13688929D01*
X16026071Y-13746071D01*
X16011786Y-13774643D01*
X15997500Y-13788929D01*
X15968928Y-13803214D01*
X15940357Y-13803214D01*
X15911786Y-13788929D01*
X15897500Y-13774643D01*
X15883214Y-13746071D01*
X15868928Y-13688929D01*
X15868928Y-13617500D01*
X15883214Y-13560357D01*
X15897500Y-13531786D01*
X15911786Y-13517500D01*
X15940357Y-13503214D01*
X16168928Y-13803214D02*
X16168928Y-13603214D01*
X16168928Y-13631786D02*
X16183214Y-13617500D01*
X16211786Y-13603214D01*
X16254643Y-13603214D01*
X16283214Y-13617500D01*
X16297500Y-13646071D01*
X16297500Y-13803214D01*
X16297500Y-13646071D02*
X16311786Y-13617500D01*
X16340357Y-13603214D01*
X16383214Y-13603214D01*
X16411786Y-13617500D01*
X16426071Y-13646071D01*
X16426071Y-13803214D01*
X16568928Y-13803214D02*
X16568928Y-13603214D01*
X16568928Y-13631786D02*
X16583214Y-13617500D01*
X16611786Y-13603214D01*
X16654643Y-13603214D01*
X16683214Y-13617500D01*
X16697500Y-13646071D01*
X16697500Y-13803214D01*
X16697500Y-13646071D02*
X16711786Y-13617500D01*
X16740357Y-13603214D01*
X16783214Y-13603214D01*
X16811786Y-13617500D01*
X16826071Y-13646071D01*
X16826071Y-13803214D01*
X17411786Y-13488929D02*
X17154643Y-13874643D01*
X17797500Y-13503214D02*
X17826071Y-13503214D01*
X17854643Y-13517500D01*
X17868928Y-13531786D01*
X17883214Y-13560357D01*
X17897500Y-13617500D01*
X17897500Y-13688929D01*
X17883214Y-13746071D01*
X17868928Y-13774643D01*
X17854643Y-13788929D01*
X17826071Y-13803214D01*
X17797500Y-13803214D01*
X17768928Y-13788929D01*
X17754643Y-13774643D01*
X17740357Y-13746071D01*
X17726071Y-13688929D01*
X17726071Y-13617500D01*
X17740357Y-13560357D01*
X17754643Y-13531786D01*
X17768928Y-13517500D01*
X17797500Y-13503214D01*
X18026071Y-13774643D02*
X18040357Y-13788929D01*
X18026071Y-13803214D01*
X18011786Y-13788929D01*
X18026071Y-13774643D01*
X18026071Y-13803214D01*
X18226071Y-13503214D02*
X18254643Y-13503214D01*
X18283214Y-13517500D01*
X18297500Y-13531786D01*
X18311786Y-13560357D01*
X18326071Y-13617500D01*
X18326071Y-13688929D01*
X18311786Y-13746071D01*
X18297500Y-13774643D01*
X18283214Y-13788929D01*
X18254643Y-13803214D01*
X18226071Y-13803214D01*
X18197500Y-13788929D01*
X18183214Y-13774643D01*
X18168928Y-13746071D01*
X18154643Y-13688929D01*
X18154643Y-13617500D01*
X18168928Y-13560357D01*
X18183214Y-13531786D01*
X18197500Y-13517500D01*
X18226071Y-13503214D01*
X18611786Y-13803214D02*
X18440357Y-13803214D01*
X18526071Y-13803214D02*
X18526071Y-13503214D01*
X18497500Y-13546071D01*
X18468928Y-13574643D01*
X18440357Y-13588929D01*
X18868928Y-13503214D02*
X18811786Y-13503214D01*
X18783214Y-13517500D01*
X18768928Y-13531786D01*
X18740357Y-13574643D01*
X18726071Y-13631786D01*
X18726071Y-13746071D01*
X18740357Y-13774643D01*
X18754643Y-13788929D01*
X18783214Y-13803214D01*
X18840357Y-13803214D01*
X18868928Y-13788929D01*
X18883214Y-13774643D01*
X18897500Y-13746071D01*
X18897500Y-13674643D01*
X18883214Y-13646071D01*
X18868928Y-13631786D01*
X18840357Y-13617500D01*
X18783214Y-13617500D01*
X18754643Y-13631786D01*
X18740357Y-13646071D01*
X18726071Y-13674643D01*
X19011786Y-13503214D02*
X19011786Y-13560357D01*
X19126071Y-13503214D02*
X19126071Y-13560357D01*
X19568928Y-13917500D02*
X19554643Y-13903214D01*
X19526071Y-13860357D01*
X19511786Y-13831786D01*
X19497500Y-13788929D01*
X19483214Y-13717500D01*
X19483214Y-13660357D01*
X19497500Y-13588929D01*
X19511786Y-13546071D01*
X19526071Y-13517500D01*
X19554643Y-13474643D01*
X19568928Y-13460357D01*
X19840357Y-13803214D02*
X19668928Y-13803214D01*
X19754643Y-13803214D02*
X19754643Y-13503214D01*
X19726071Y-13546071D01*
X19697500Y-13574643D01*
X19668928Y-13588929D01*
X20111786Y-13503214D02*
X19968928Y-13503214D01*
X19954643Y-13646071D01*
X19968928Y-13631786D01*
X19997500Y-13617500D01*
X20068928Y-13617500D01*
X20097500Y-13631786D01*
X20111786Y-13646071D01*
X20126071Y-13674643D01*
X20126071Y-13746071D01*
X20111786Y-13774643D01*
X20097500Y-13788929D01*
X20068928Y-13803214D01*
X19997500Y-13803214D01*
X19968928Y-13788929D01*
X19954643Y-13774643D01*
X20483214Y-13803214D02*
X20483214Y-13503214D01*
X20611786Y-13803214D02*
X20611786Y-13646071D01*
X20597500Y-13617500D01*
X20568928Y-13603214D01*
X20526071Y-13603214D01*
X20497500Y-13617500D01*
X20483214Y-13631786D01*
X20797500Y-13803214D02*
X20768928Y-13788929D01*
X20754643Y-13774643D01*
X20740357Y-13746071D01*
X20740357Y-13660357D01*
X20754643Y-13631786D01*
X20768928Y-13617500D01*
X20797500Y-13603214D01*
X20840357Y-13603214D01*
X20868928Y-13617500D01*
X20883214Y-13631786D01*
X20897500Y-13660357D01*
X20897500Y-13746071D01*
X20883214Y-13774643D01*
X20868928Y-13788929D01*
X20840357Y-13803214D01*
X20797500Y-13803214D01*
X21068928Y-13803214D02*
X21040357Y-13788929D01*
X21026071Y-13760357D01*
X21026071Y-13503214D01*
X21297500Y-13788929D02*
X21268929Y-13803214D01*
X21211786Y-13803214D01*
X21183214Y-13788929D01*
X21168929Y-13760357D01*
X21168929Y-13646071D01*
X21183214Y-13617500D01*
X21211786Y-13603214D01*
X21268929Y-13603214D01*
X21297500Y-13617500D01*
X21311786Y-13646071D01*
X21311786Y-13674643D01*
X21168929Y-13703214D01*
X21426071Y-13788929D02*
X21454643Y-13803214D01*
X21511786Y-13803214D01*
X21540357Y-13788929D01*
X21554643Y-13760357D01*
X21554643Y-13746071D01*
X21540357Y-13717500D01*
X21511786Y-13703214D01*
X21468929Y-13703214D01*
X21440357Y-13688929D01*
X21426071Y-13660357D01*
X21426071Y-13646071D01*
X21440357Y-13617500D01*
X21468929Y-13603214D01*
X21511786Y-13603214D01*
X21540357Y-13617500D01*
X21654643Y-13917500D02*
X21668929Y-13903214D01*
X21697500Y-13860357D01*
X21711786Y-13831786D01*
X21726071Y-13788929D01*
X21740357Y-13717500D01*
X21740357Y-13660357D01*
X21726071Y-13588929D01*
X21711786Y-13546071D01*
X21697500Y-13517500D01*
X21668929Y-13474643D01*
X21654643Y-13460357D01*
X14897500Y-14063500D02*
G75*
G03X14897500Y-14063500I-40000J0D01*
G01*
X15226071Y-13899214D02*
X15254643Y-13899214D01*
X15283214Y-13913500D01*
X15297500Y-13927786D01*
X15311786Y-13956357D01*
X15326071Y-14013500D01*
X15326071Y-14084929D01*
X15311786Y-14142071D01*
X15297500Y-14170643D01*
X15283214Y-14184929D01*
X15254643Y-14199214D01*
X15226071Y-14199214D01*
X15197500Y-14184929D01*
X15183214Y-14170643D01*
X15168928Y-14142071D01*
X15154643Y-14084929D01*
X15154643Y-14013500D01*
X15168928Y-13956357D01*
X15183214Y-13927786D01*
X15197500Y-13913500D01*
X15226071Y-13899214D01*
X15454643Y-14170643D02*
X15468928Y-14184929D01*
X15454643Y-14199214D01*
X15440357Y-14184929D01*
X15454643Y-14170643D01*
X15454643Y-14199214D01*
X15640357Y-14027786D02*
X15611786Y-14013500D01*
X15597500Y-13999214D01*
X15583214Y-13970643D01*
X15583214Y-13956357D01*
X15597500Y-13927786D01*
X15611786Y-13913500D01*
X15640357Y-13899214D01*
X15697500Y-13899214D01*
X15726071Y-13913500D01*
X15740357Y-13927786D01*
X15754643Y-13956357D01*
X15754643Y-13970643D01*
X15740357Y-13999214D01*
X15726071Y-14013500D01*
X15697500Y-14027786D01*
X15640357Y-14027786D01*
X15611786Y-14042071D01*
X15597500Y-14056357D01*
X15583214Y-14084929D01*
X15583214Y-14142071D01*
X15597500Y-14170643D01*
X15611786Y-14184929D01*
X15640357Y-14199214D01*
X15697500Y-14199214D01*
X15726071Y-14184929D01*
X15740357Y-14170643D01*
X15754643Y-14142071D01*
X15754643Y-14084929D01*
X15740357Y-14056357D01*
X15726071Y-14042071D01*
X15697500Y-14027786D01*
X15940357Y-13899214D02*
X15968928Y-13899214D01*
X15997500Y-13913500D01*
X16011786Y-13927786D01*
X16026071Y-13956357D01*
X16040357Y-14013500D01*
X16040357Y-14084929D01*
X16026071Y-14142071D01*
X16011786Y-14170643D01*
X15997500Y-14184929D01*
X15968928Y-14199214D01*
X15940357Y-14199214D01*
X15911786Y-14184929D01*
X15897500Y-14170643D01*
X15883214Y-14142071D01*
X15868928Y-14084929D01*
X15868928Y-14013500D01*
X15883214Y-13956357D01*
X15897500Y-13927786D01*
X15911786Y-13913500D01*
X15940357Y-13899214D01*
X16168928Y-14199214D02*
X16168928Y-13999214D01*
X16168928Y-14027786D02*
X16183214Y-14013500D01*
X16211786Y-13999214D01*
X16254643Y-13999214D01*
X16283214Y-14013500D01*
X16297500Y-14042071D01*
X16297500Y-14199214D01*
X16297500Y-14042071D02*
X16311786Y-14013500D01*
X16340357Y-13999214D01*
X16383214Y-13999214D01*
X16411786Y-14013500D01*
X16426071Y-14042071D01*
X16426071Y-14199214D01*
X16568928Y-14199214D02*
X16568928Y-13999214D01*
X16568928Y-14027786D02*
X16583214Y-14013500D01*
X16611786Y-13999214D01*
X16654643Y-13999214D01*
X16683214Y-14013500D01*
X16697500Y-14042071D01*
X16697500Y-14199214D01*
X16697500Y-14042071D02*
X16711786Y-14013500D01*
X16740357Y-13999214D01*
X16783214Y-13999214D01*
X16811786Y-14013500D01*
X16826071Y-14042071D01*
X16826071Y-14199214D01*
X17411786Y-13884929D02*
X17154643Y-14270643D01*
X17797500Y-13899214D02*
X17826071Y-13899214D01*
X17854643Y-13913500D01*
X17868928Y-13927786D01*
X17883214Y-13956357D01*
X17897500Y-14013500D01*
X17897500Y-14084929D01*
X17883214Y-14142071D01*
X17868928Y-14170643D01*
X17854643Y-14184929D01*
X17826071Y-14199214D01*
X17797500Y-14199214D01*
X17768928Y-14184929D01*
X17754643Y-14170643D01*
X17740357Y-14142071D01*
X17726071Y-14084929D01*
X17726071Y-14013500D01*
X17740357Y-13956357D01*
X17754643Y-13927786D01*
X17768928Y-13913500D01*
X17797500Y-13899214D01*
X18026071Y-14170643D02*
X18040357Y-14184929D01*
X18026071Y-14199214D01*
X18011786Y-14184929D01*
X18026071Y-14170643D01*
X18026071Y-14199214D01*
X18226071Y-13899214D02*
X18254643Y-13899214D01*
X18283214Y-13913500D01*
X18297500Y-13927786D01*
X18311786Y-13956357D01*
X18326071Y-14013500D01*
X18326071Y-14084929D01*
X18311786Y-14142071D01*
X18297500Y-14170643D01*
X18283214Y-14184929D01*
X18254643Y-14199214D01*
X18226071Y-14199214D01*
X18197500Y-14184929D01*
X18183214Y-14170643D01*
X18168928Y-14142071D01*
X18154643Y-14084929D01*
X18154643Y-14013500D01*
X18168928Y-13956357D01*
X18183214Y-13927786D01*
X18197500Y-13913500D01*
X18226071Y-13899214D01*
X18426071Y-13899214D02*
X18611786Y-13899214D01*
X18511786Y-14013500D01*
X18554643Y-14013500D01*
X18583214Y-14027786D01*
X18597500Y-14042071D01*
X18611786Y-14070643D01*
X18611786Y-14142071D01*
X18597500Y-14170643D01*
X18583214Y-14184929D01*
X18554643Y-14199214D01*
X18468928Y-14199214D01*
X18440357Y-14184929D01*
X18426071Y-14170643D01*
X18897500Y-14199214D02*
X18726071Y-14199214D01*
X18811786Y-14199214D02*
X18811786Y-13899214D01*
X18783214Y-13942071D01*
X18754643Y-13970643D01*
X18726071Y-13984929D01*
X19011786Y-13899214D02*
X19011786Y-13956357D01*
X19126071Y-13899214D02*
X19126071Y-13956357D01*
X19568928Y-14313500D02*
X19554643Y-14299214D01*
X19526071Y-14256357D01*
X19511786Y-14227786D01*
X19497500Y-14184929D01*
X19483214Y-14113500D01*
X19483214Y-14056357D01*
X19497500Y-13984929D01*
X19511786Y-13942071D01*
X19526071Y-13913500D01*
X19554643Y-13870643D01*
X19568928Y-13856357D01*
X19654643Y-13899214D02*
X19840357Y-13899214D01*
X19740357Y-14013500D01*
X19783214Y-14013500D01*
X19811786Y-14027786D01*
X19826071Y-14042071D01*
X19840357Y-14070643D01*
X19840357Y-14142071D01*
X19826071Y-14170643D01*
X19811786Y-14184929D01*
X19783214Y-14199214D01*
X19697500Y-14199214D01*
X19668928Y-14184929D01*
X19654643Y-14170643D01*
X20097500Y-13899214D02*
X20040357Y-13899214D01*
X20011786Y-13913500D01*
X19997500Y-13927786D01*
X19968928Y-13970643D01*
X19954643Y-14027786D01*
X19954643Y-14142071D01*
X19968928Y-14170643D01*
X19983214Y-14184929D01*
X20011786Y-14199214D01*
X20068928Y-14199214D01*
X20097500Y-14184929D01*
X20111786Y-14170643D01*
X20126071Y-14142071D01*
X20126071Y-14070643D01*
X20111786Y-14042071D01*
X20097500Y-14027786D01*
X20068928Y-14013500D01*
X20011786Y-14013500D01*
X19983214Y-14027786D01*
X19968928Y-14042071D01*
X19954643Y-14070643D01*
X20483214Y-14199214D02*
X20483214Y-13899214D01*
X20611786Y-14199214D02*
X20611786Y-14042071D01*
X20597500Y-14013500D01*
X20568928Y-13999214D01*
X20526071Y-13999214D01*
X20497500Y-14013500D01*
X20483214Y-14027786D01*
X20797500Y-14199214D02*
X20768928Y-14184929D01*
X20754643Y-14170643D01*
X20740357Y-14142071D01*
X20740357Y-14056357D01*
X20754643Y-14027786D01*
X20768928Y-14013500D01*
X20797500Y-13999214D01*
X20840357Y-13999214D01*
X20868928Y-14013500D01*
X20883214Y-14027786D01*
X20897500Y-14056357D01*
X20897500Y-14142071D01*
X20883214Y-14170643D01*
X20868928Y-14184929D01*
X20840357Y-14199214D01*
X20797500Y-14199214D01*
X21068928Y-14199214D02*
X21040357Y-14184929D01*
X21026071Y-14156357D01*
X21026071Y-13899214D01*
X21297500Y-14184929D02*
X21268929Y-14199214D01*
X21211786Y-14199214D01*
X21183214Y-14184929D01*
X21168929Y-14156357D01*
X21168929Y-14042071D01*
X21183214Y-14013500D01*
X21211786Y-13999214D01*
X21268929Y-13999214D01*
X21297500Y-14013500D01*
X21311786Y-14042071D01*
X21311786Y-14070643D01*
X21168929Y-14099214D01*
X21426071Y-14184929D02*
X21454643Y-14199214D01*
X21511786Y-14199214D01*
X21540357Y-14184929D01*
X21554643Y-14156357D01*
X21554643Y-14142071D01*
X21540357Y-14113500D01*
X21511786Y-14099214D01*
X21468929Y-14099214D01*
X21440357Y-14084929D01*
X21426071Y-14056357D01*
X21426071Y-14042071D01*
X21440357Y-14013500D01*
X21468929Y-13999214D01*
X21511786Y-13999214D01*
X21540357Y-14013500D01*
X21654643Y-14313500D02*
X21668929Y-14299214D01*
X21697500Y-14256357D01*
X21711786Y-14227786D01*
X21726071Y-14184929D01*
X21740357Y-14113500D01*
X21740357Y-14056357D01*
X21726071Y-13984929D01*
X21711786Y-13942071D01*
X21697500Y-13913500D01*
X21668929Y-13870643D01*
X21654643Y-13856357D01*
X14847500Y-14409500D02*
X14847500Y-14509500D01*
X14797500Y-14459500D02*
X14897500Y-14459500D01*
X15326071Y-14595214D02*
X15154643Y-14595214D01*
X15240357Y-14595214D02*
X15240357Y-14295214D01*
X15211786Y-14338071D01*
X15183214Y-14366643D01*
X15154643Y-14380929D01*
X15454643Y-14566643D02*
X15468928Y-14580929D01*
X15454643Y-14595214D01*
X15440357Y-14580929D01*
X15454643Y-14566643D01*
X15454643Y-14595214D01*
X15654643Y-14295214D02*
X15683214Y-14295214D01*
X15711786Y-14309500D01*
X15726071Y-14323786D01*
X15740357Y-14352357D01*
X15754643Y-14409500D01*
X15754643Y-14480929D01*
X15740357Y-14538071D01*
X15726071Y-14566643D01*
X15711786Y-14580929D01*
X15683214Y-14595214D01*
X15654643Y-14595214D01*
X15626071Y-14580929D01*
X15611786Y-14566643D01*
X15597500Y-14538071D01*
X15583214Y-14480929D01*
X15583214Y-14409500D01*
X15597500Y-14352357D01*
X15611786Y-14323786D01*
X15626071Y-14309500D01*
X15654643Y-14295214D01*
X15940357Y-14295214D02*
X15968928Y-14295214D01*
X15997500Y-14309500D01*
X16011786Y-14323786D01*
X16026071Y-14352357D01*
X16040357Y-14409500D01*
X16040357Y-14480929D01*
X16026071Y-14538071D01*
X16011786Y-14566643D01*
X15997500Y-14580929D01*
X15968928Y-14595214D01*
X15940357Y-14595214D01*
X15911786Y-14580929D01*
X15897500Y-14566643D01*
X15883214Y-14538071D01*
X15868928Y-14480929D01*
X15868928Y-14409500D01*
X15883214Y-14352357D01*
X15897500Y-14323786D01*
X15911786Y-14309500D01*
X15940357Y-14295214D01*
X16168928Y-14595214D02*
X16168928Y-14395214D01*
X16168928Y-14423786D02*
X16183214Y-14409500D01*
X16211786Y-14395214D01*
X16254643Y-14395214D01*
X16283214Y-14409500D01*
X16297500Y-14438071D01*
X16297500Y-14595214D01*
X16297500Y-14438071D02*
X16311786Y-14409500D01*
X16340357Y-14395214D01*
X16383214Y-14395214D01*
X16411786Y-14409500D01*
X16426071Y-14438071D01*
X16426071Y-14595214D01*
X16568928Y-14595214D02*
X16568928Y-14395214D01*
X16568928Y-14423786D02*
X16583214Y-14409500D01*
X16611786Y-14395214D01*
X16654643Y-14395214D01*
X16683214Y-14409500D01*
X16697500Y-14438071D01*
X16697500Y-14595214D01*
X16697500Y-14438071D02*
X16711786Y-14409500D01*
X16740357Y-14395214D01*
X16783214Y-14395214D01*
X16811786Y-14409500D01*
X16826071Y-14438071D01*
X16826071Y-14595214D01*
X17411786Y-14280929D02*
X17154643Y-14666643D01*
X17797500Y-14295214D02*
X17826071Y-14295214D01*
X17854643Y-14309500D01*
X17868928Y-14323786D01*
X17883214Y-14352357D01*
X17897500Y-14409500D01*
X17897500Y-14480929D01*
X17883214Y-14538071D01*
X17868928Y-14566643D01*
X17854643Y-14580929D01*
X17826071Y-14595214D01*
X17797500Y-14595214D01*
X17768928Y-14580929D01*
X17754643Y-14566643D01*
X17740357Y-14538071D01*
X17726071Y-14480929D01*
X17726071Y-14409500D01*
X17740357Y-14352357D01*
X17754643Y-14323786D01*
X17768928Y-14309500D01*
X17797500Y-14295214D01*
X18026071Y-14566643D02*
X18040357Y-14580929D01*
X18026071Y-14595214D01*
X18011786Y-14580929D01*
X18026071Y-14566643D01*
X18026071Y-14595214D01*
X18226071Y-14295214D02*
X18254643Y-14295214D01*
X18283214Y-14309500D01*
X18297500Y-14323786D01*
X18311786Y-14352357D01*
X18326071Y-14409500D01*
X18326071Y-14480929D01*
X18311786Y-14538071D01*
X18297500Y-14566643D01*
X18283214Y-14580929D01*
X18254643Y-14595214D01*
X18226071Y-14595214D01*
X18197500Y-14580929D01*
X18183214Y-14566643D01*
X18168928Y-14538071D01*
X18154643Y-14480929D01*
X18154643Y-14409500D01*
X18168928Y-14352357D01*
X18183214Y-14323786D01*
X18197500Y-14309500D01*
X18226071Y-14295214D01*
X18426071Y-14295214D02*
X18611786Y-14295214D01*
X18511786Y-14409500D01*
X18554643Y-14409500D01*
X18583214Y-14423786D01*
X18597500Y-14438071D01*
X18611786Y-14466643D01*
X18611786Y-14538071D01*
X18597500Y-14566643D01*
X18583214Y-14580929D01*
X18554643Y-14595214D01*
X18468928Y-14595214D01*
X18440357Y-14580929D01*
X18426071Y-14566643D01*
X18754643Y-14595214D02*
X18811786Y-14595214D01*
X18840357Y-14580929D01*
X18854643Y-14566643D01*
X18883214Y-14523786D01*
X18897500Y-14466643D01*
X18897500Y-14352357D01*
X18883214Y-14323786D01*
X18868928Y-14309500D01*
X18840357Y-14295214D01*
X18783214Y-14295214D01*
X18754643Y-14309500D01*
X18740357Y-14323786D01*
X18726071Y-14352357D01*
X18726071Y-14423786D01*
X18740357Y-14452357D01*
X18754643Y-14466643D01*
X18783214Y-14480929D01*
X18840357Y-14480929D01*
X18868928Y-14466643D01*
X18883214Y-14452357D01*
X18897500Y-14423786D01*
X19011786Y-14295214D02*
X19011786Y-14352357D01*
X19126071Y-14295214D02*
X19126071Y-14352357D01*
X19568928Y-14709500D02*
X19554643Y-14695214D01*
X19526071Y-14652357D01*
X19511786Y-14623786D01*
X19497500Y-14580929D01*
X19483214Y-14509500D01*
X19483214Y-14452357D01*
X19497500Y-14380929D01*
X19511786Y-14338071D01*
X19526071Y-14309500D01*
X19554643Y-14266643D01*
X19568928Y-14252357D01*
X19726071Y-14423786D02*
X19697500Y-14409500D01*
X19683214Y-14395214D01*
X19668928Y-14366643D01*
X19668928Y-14352357D01*
X19683214Y-14323786D01*
X19697500Y-14309500D01*
X19726071Y-14295214D01*
X19783214Y-14295214D01*
X19811786Y-14309500D01*
X19826071Y-14323786D01*
X19840357Y-14352357D01*
X19840357Y-14366643D01*
X19826071Y-14395214D01*
X19811786Y-14409500D01*
X19783214Y-14423786D01*
X19726071Y-14423786D01*
X19697500Y-14438071D01*
X19683214Y-14452357D01*
X19668928Y-14480929D01*
X19668928Y-14538071D01*
X19683214Y-14566643D01*
X19697500Y-14580929D01*
X19726071Y-14595214D01*
X19783214Y-14595214D01*
X19811786Y-14580929D01*
X19826071Y-14566643D01*
X19840357Y-14538071D01*
X19840357Y-14480929D01*
X19826071Y-14452357D01*
X19811786Y-14438071D01*
X19783214Y-14423786D01*
X20197500Y-14595214D02*
X20197500Y-14295214D01*
X20326071Y-14595214D02*
X20326071Y-14438071D01*
X20311786Y-14409500D01*
X20283214Y-14395214D01*
X20240357Y-14395214D01*
X20211786Y-14409500D01*
X20197500Y-14423786D01*
X20511786Y-14595214D02*
X20483214Y-14580929D01*
X20468928Y-14566643D01*
X20454643Y-14538071D01*
X20454643Y-14452357D01*
X20468928Y-14423786D01*
X20483214Y-14409500D01*
X20511786Y-14395214D01*
X20554643Y-14395214D01*
X20583214Y-14409500D01*
X20597500Y-14423786D01*
X20611786Y-14452357D01*
X20611786Y-14538071D01*
X20597500Y-14566643D01*
X20583214Y-14580929D01*
X20554643Y-14595214D01*
X20511786Y-14595214D01*
X20783214Y-14595214D02*
X20754643Y-14580929D01*
X20740357Y-14552357D01*
X20740357Y-14295214D01*
X21011786Y-14580929D02*
X20983214Y-14595214D01*
X20926071Y-14595214D01*
X20897500Y-14580929D01*
X20883214Y-14552357D01*
X20883214Y-14438071D01*
X20897500Y-14409500D01*
X20926071Y-14395214D01*
X20983214Y-14395214D01*
X21011786Y-14409500D01*
X21026071Y-14438071D01*
X21026071Y-14466643D01*
X20883214Y-14495214D01*
X21140357Y-14580929D02*
X21168929Y-14595214D01*
X21226071Y-14595214D01*
X21254643Y-14580929D01*
X21268929Y-14552357D01*
X21268929Y-14538071D01*
X21254643Y-14509500D01*
X21226071Y-14495214D01*
X21183214Y-14495214D01*
X21154643Y-14480929D01*
X21140357Y-14452357D01*
X21140357Y-14438071D01*
X21154643Y-14409500D01*
X21183214Y-14395214D01*
X21226071Y-14395214D01*
X21254643Y-14409500D01*
X21368928Y-14709500D02*
X21383214Y-14695214D01*
X21411786Y-14652357D01*
X21426071Y-14623786D01*
X21440357Y-14580929D01*
X21454643Y-14509500D01*
X21454643Y-14452357D01*
X21440357Y-14380929D01*
X21426071Y-14338071D01*
X21411786Y-14309500D01*
X21383214Y-14266643D01*
X21368928Y-14252357D01*
M02*
